<?xml version="1.0" encoding="iso-8859-1"?>
<!-- Generator: Adobe Illustrator 19.0.0, SVG Export Plug-In . SVG Version: 6.00 Build 0)  -->
<svg xmlns="http://www.w3.org/2000/svg" xmlns:xlink="http://www.w3.org/1999/xlink" version="1.1" id="Layer_1" x="0px" y="0px" viewBox="0 0 511.999 511.999" style="enable-background:new 0 0 511.999 511.999;" xml:space="preserve" width="512" height="512">
<path style="fill:#00AC4E;" d="M255.998,73.123v4.064c0,20.157-16.418,36.575-36.575,36.575h-73.151  c-20.157,0-36.575-16.418-36.575-36.575V69.06c0-20.157,16.418-36.575,36.575-36.575h73.151c20.157,0,36.575,16.418,36.575,36.575  L255.998,73.123L255.998,73.123z"/>
<path style="fill:#EF3E25;" d="M255.511,150.744c0.162,0,0.325,0,0.488,0.081c10.403-2.926,21.214-4.551,32.511-4.551h65.023  c67.299,0,121.918,54.619,121.918,121.918v113.791c0,67.299-54.619,121.918-121.918,121.918H288.51  c-11.297,0-22.108-1.625-32.511-4.551c-10.403,2.926-21.214,4.551-32.511,4.551h-65.023c-67.299,0-121.918-54.619-121.918-121.918  V268.192c0-67.299,54.619-121.918,121.918-121.918h65.023C234.622,146.274,245.27,147.818,255.511,150.744z"/>
<path style="fill:#231F20;" d="M353.532,138.173h-65.023c-8.581,0-17.215,0.912-25.775,2.688  c-1.364-20.765-0.927-66.712,25.264-96.314c16.642-18.809,41.425-28.346,73.663-28.346V0c-37.08,0-65.946,11.376-85.796,33.812  c-5.464,6.176-10.183,13.138-14.166,20.832c-6.012-17.58-22.685-30.261-42.276-30.261h-73.151  c-24.634,0-44.675,20.042-44.675,44.676v8.128c0,24.634,20.042,44.676,44.675,44.676h73.152c10.224,0,19.651-3.461,27.189-9.261  c-0.774,10.74-0.592,20.366-0.156,27.709c-7.551-1.412-15.237-2.14-22.969-2.14h-65.023c-71.693,0-130.019,58.326-130.019,130.019  V381.98c0,71.692,58.326,130.019,130.019,130.019h65.023c10.837,0,21.762-1.431,32.512-4.258  c10.748,2.825,21.674,4.258,32.511,4.258h65.023c71.693,0,130.019-58.327,130.019-130.019V268.192  C483.551,196.5,425.225,138.173,353.532,138.173z M219.422,105.662h-73.151c-15.701,0-28.474-12.774-28.474-28.475V69.06  c0-15.701,12.773-28.475,28.474-28.475h73.152c14.33,0,26.216,10.643,28.184,24.439h-97.271v16.201h97.272  C245.64,95.019,233.754,105.662,219.422,105.662z M467.35,381.982c0,62.758-51.058,113.818-113.818,113.818h-65.023  c-10.092,0-20.292-1.43-30.318-4.249l-2.193-0.617l-2.193,0.617c-10.026,2.819-20.226,4.249-30.319,4.249h-65.023  c-62.758,0-113.818-51.058-113.818-113.818V268.192c0-62.758,51.058-113.818,113.818-113.818h65.023  c10.115,0,20.141,1.399,29.798,4.159l1.904,0.935l3.003-0.845c10.025-2.819,20.225-4.249,30.318-4.249h65.023  c62.758,0,113.818,51.058,113.818,113.818v113.79H467.35z"/>
<path style="fill:#FFFFFF;" d="M77.213,284.448v65.023h16.201v-65.023c0-49.314,40.12-89.434,89.434-89.434v-16.201  C124.601,178.813,77.213,226.201,77.213,284.448z"/>
<g>
	<rect x="77.212" y="365.722" style="fill:#231F20;" width="16.201" height="16.255"/>
	<rect x="402.302" y="430.775" style="fill:#231F20;" width="16.255" height="16.201"/>
	<rect x="418.557" y="414.52" style="fill:#231F20;" width="16.255" height="16.201"/>
	<rect x="402.302" y="398.264" style="fill:#231F20;" width="16.255" height="16.201"/>
</g>
<g>
</g>
<g>
</g>
<g>
</g>
<g>
</g>
<g>
</g>
<g>
</g>
<g>
</g>
<g>
</g>
<g>
</g>
<g>
</g>
<g>
</g>
<g>
</g>
<g>
</g>
<g>
</g>
<g>
</g>
</svg>
