<?xml version="1.0" encoding="iso-8859-1"?>
<!-- Generator: Adobe Illustrator 19.0.0, SVG Export Plug-In . SVG Version: 6.00 Build 0)  -->
<svg xmlns="http://www.w3.org/2000/svg" xmlns:xlink="http://www.w3.org/1999/xlink" version="1.1" id="Layer_1" x="0px" y="0px" viewBox="0 0 511.999 511.999" style="enable-background:new 0 0 511.999 511.999;" xml:space="preserve"  width="512" height="512">
<path style="fill:#A67C52;" d="M255.999,408.016c-35.364,0-64.006-28.643-64.006-64.007s28.643-64.007,64.006-64.007  c35.364,0,64.007,28.643,64.007,64.007S291.363,408.016,255.999,408.016z"/>
<path style="fill:#FFD311;" d="M255.999,231.997c61.847,0,112.012,50.166,112.012,112.011S317.846,456.02,255.999,456.02  s-112.011-50.166-112.011-112.011S194.153,231.997,255.999,231.997z M320.006,344.009c0-35.364-28.643-64.007-64.007-64.007  s-64.006,28.643-64.006,64.007s28.643,64.007,64.006,64.007C291.363,408.016,320.006,379.372,320.006,344.009z"/>
<path style="fill:#00AC4E;" d="M367.051,228.957c30.163,29.043,48.965,69.847,48.965,115.052  c0,88.409-71.608,160.016-160.017,160.016S95.982,432.417,95.982,344.009c0-45.205,18.802-86.009,48.965-115.052  c-0.56-4.24-0.96-8.561-0.96-12.961V103.984c0-52.805,43.205-96.01,96.01-96.01H272c52.805,0,96.01,43.205,96.01,96.01v112.011  C368.011,220.396,367.611,224.717,367.051,228.957z M368.011,344.009c0-61.847-50.166-112.011-112.012-112.011  s-112.011,50.166-112.011,112.011S194.153,456.02,255.998,456.02C317.846,456.021,368.011,405.855,368.011,344.009z"/>
<g>
	<path style="fill:#231F20;" d="M375.429,226.017c0.377-3.633,0.556-6.886,0.556-10.022V103.984C375.985,46.647,329.338,0,272.002,0   h-32.004c-57.337,0-103.984,46.647-103.984,103.984v112.011c0,3.136,0.179,6.389,0.557,10.022   c-31.348,31.606-48.561,73.348-48.561,117.992c0,92.63,75.36,167.99,167.99,167.99s167.99-75.36,167.99-167.99   C423.99,299.365,406.777,257.625,375.429,226.017z M255.999,496.052c-83.837,0-152.042-68.206-152.042-152.042   c0-41.603,16.522-80.422,46.522-109.308l2.901-2.794l-0.527-3.993c-0.608-4.607-0.891-8.394-0.891-11.917V103.984   c-0.001-48.543,39.492-88.036,88.035-88.036h32.004c48.543,0,88.036,39.493,88.036,88.036v112.011c0,3.523-0.284,7.31-0.891,11.917   l-0.527,3.993l2.901,2.794c30,28.886,46.522,67.706,46.522,109.308C408.042,427.845,339.836,496.052,255.999,496.052z"/>
	<path style="fill:#231F20;" d="M255.999,224.024c-66.16,0-119.985,53.825-119.985,119.985s53.826,119.986,119.985,119.986   s119.986-53.825,119.986-119.986C375.985,277.849,322.16,224.024,255.999,224.024z M255.999,448.047   c-57.367,0-104.038-46.671-104.038-104.038c0-57.367,46.672-104.037,104.038-104.037s104.038,46.672,104.038,104.037   C360.037,401.376,313.366,448.047,255.999,448.047z"/>
	<path style="fill:#231F20;" d="M255.999,272.029c-39.69,0-71.981,32.29-71.981,71.981s32.29,71.981,71.981,71.981   s71.981-32.29,71.981-71.981S295.689,272.029,255.999,272.029z M255.999,400.042c-30.897,0-56.033-25.136-56.033-56.033   c0-30.896,25.136-56.033,56.033-56.033s56.033,25.136,56.033,56.033S286.896,400.042,255.999,400.042z"/>
</g>
<path style="fill:#FFFFFF;" d="M216.022,344.009h15.948c0-13.249,10.78-24.029,24.029-24.029v-15.948  C233.955,304.032,216.022,321.966,216.022,344.009z"/>
<rect x="215.997" y="352.033" style="fill:#231F20;" width="16.001" height="15.948"/>
<path style="fill:#FFFFFF;" d="M183.964,119.985c0-39.72,32.315-72.034,72.034-72.034V32.003c-48.513,0-87.982,39.469-87.982,87.982  v32.003h15.948V119.985z"/>
<rect x="168.015" y="167.995" style="fill:#231F20;" width="15.948" height="16.001"/>
<g>
</g>
<g>
</g>
<g>
</g>
<g>
</g>
<g>
</g>
<g>
</g>
<g>
</g>
<g>
</g>
<g>
</g>
<g>
</g>
<g>
</g>
<g>
</g>
<g>
</g>
<g>
</g>
<g>
</g>
</svg>
