<?xml version="1.0" encoding="iso-8859-1"?>
<!-- Generator: Adobe Illustrator 19.0.0, SVG Export Plug-In . SVG Version: 6.00 Build 0)  -->
<svg xmlns="http://www.w3.org/2000/svg" xmlns:xlink="http://www.w3.org/1999/xlink" version="1.1" id="Layer_1" x="0px" y="0px" viewBox="0 0 512 512" style="enable-background:new 0 0 512 512;" xml:space="preserve"  width="512" height="512">
<path style="fill:#8C6239;" d="M448.02,420.017H256V234.157c31.923-7.36,56.006-36.084,56.006-70.167  c0-39.604-32.404-72.008-72.008-72.008h192.02c39.604,0,72.008,32.404,72.008,72.008c0,34.084-24.082,62.807-56.006,70.167v1.84  V420.017z"/>
<path style="fill:#A67C52;" d="M63.981,235.998v-1.84c-31.924-7.36-56.007-36.084-56.007-70.167  c0-39.604,32.404-72.008,72.008-72.008h160.016c39.604,0,72.008,32.404,72.008,72.008c0,34.084-24.082,62.807-56.006,70.167v185.859  H63.981V235.998z"/>
<path style="fill:#231F20;" d="M432.018,84.008H79.982C35.879,84.008,0,119.888,0,163.99c0,34.708,23.202,65.804,56.007,76.244  v187.757h399.988V240.235C488.798,229.794,512,198.699,512,163.99C512,119.888,476.121,84.008,432.018,84.008z M254.209,226.386  l-6.182,1.426v184.23H71.955v-24.057h152.042v-15.948H71.955V243.972h64.034v-15.948H71.955v-0.212l-6.182-1.426  c-28.871-6.657-49.824-32.897-49.824-62.396c0-35.309,28.725-64.034,64.034-64.034h160.016c35.309,0,64.034,28.725,64.034,64.034  C304.032,193.489,283.078,219.73,254.209,226.386z M446.229,226.386l-6.182,1.426v0.212h-40.031v15.948h40.031v128.066H288.003  v15.948h152.043v24.057H263.974V240.235c32.804-10.441,56.006-41.536,56.006-76.244c0-26.164-12.629-49.432-32.109-64.034h144.148  c35.309,0,64.034,28.725,64.034,64.034C496.052,193.489,475.099,219.73,446.229,226.386z"/>
<rect x="368.012" y="228.022" style="fill:#FFFFFF;" width="16.001" height="15.948"/>
<rect x="336.01" y="228.022" style="fill:#231F20;" width="16.001" height="15.948"/>
<rect x="151.994" y="228.022" style="fill:#FFFFFF;" width="16.001" height="15.948"/>
<rect x="183.996" y="228.022" style="fill:#231F20;" width="16.001" height="15.948"/>
<path style="fill:#FFFFFF;" d="M40.005,163.99h15.948c0-17.661,14.369-32.03,32.031-32.03v-15.948  C61.528,116.013,40.005,137.535,40.005,163.99z"/>
<rect x="40.005" y="179.987" style="fill:#231F20;" width="15.948" height="16.001"/>
<g>
</g>
<g>
</g>
<g>
</g>
<g>
</g>
<g>
</g>
<g>
</g>
<g>
</g>
<g>
</g>
<g>
</g>
<g>
</g>
<g>
</g>
<g>
</g>
<g>
</g>
<g>
</g>
<g>
</g>
</svg>
