<?xml version="1.0" encoding="iso-8859-1"?>
<!-- Generator: Adobe Illustrator 19.0.0, SVG Export Plug-In . SVG Version: 6.00 Build 0)  -->
<svg xmlns="http://www.w3.org/2000/svg" xmlns:xlink="http://www.w3.org/1999/xlink" version="1.1" id="Layer_1" x="0px" y="0px" viewBox="0 0 512 512" style="enable-background:new 0 0 512 512;" xml:space="preserve" width="512" height="512">
<path style="fill:#008E4E;" d="M181.161,445.714c0-55.144-63.022-126.044-63.022-126.044l-0.945-1.654  c9.453-4.569,17.173-16.937,26.233-20.639c8.981-3.703,22.294-1.182,31.904-3.86l37.34,97.054h7.877v-78.777l-0.079-0.158  c10.399-2.599,21.349-7.72,31.59-7.72c10.241,0,21.191,5.12,31.589,7.72l-0.079,0.158v78.777h7.877l38.601-100.283  c8.902,7.799,27.257,2.442,38.522,7.09c7.641,3.151,14.416,12.525,21.979,18.04l-4.569,4.254c0,0-63.021,70.9-63.021,126.044v47.267  c0,0,0,7.877-7.877,7.877c-7.877,0-118.166,0-126.044,0c-7.877,0-7.877-7.877-7.877-7.877L181.161,445.714L181.161,445.714z"/>
<path style="fill:#36C63F;" d="M300.745,312.028c-5.357,1.734-11.108,1.102-17.095-0.394c-10.398-2.599-21.349-7.72-31.589-7.72  s-21.191,5.12-31.59,7.72c-5.987,1.497-11.738,2.127-17.095,0.394c-9.453-3.072-15.676-12.447-22.136-21.349  c-1.732,1.26-3.703,2.206-5.908,2.836c-9.611,2.679-22.925,0.157-31.904,3.86c-9.059,3.703-16.78,16.071-26.233,20.639  c-2.206,1.024-4.49,1.654-6.932,1.654c-12.84,0-22.058-17.725-33.166-22.294c-11.58-4.805-30.565,1.024-39.231-7.72  c-8.744-8.666-2.914-27.651-7.72-39.231C25.576,239.317,7.851,230.1,7.851,217.259c0-12.84,17.725-22.058,22.294-33.166  c4.805-11.58-1.024-30.565,7.72-39.231c8.666-8.744,27.651-2.914,39.231-7.72c11.108-4.569,20.324-22.294,33.166-22.294  c2.521,0,4.963,0.867,7.247,1.969c4.096-14.968-1.812-35.135,7.09-47.345c9.217-12.683,31.432-12.84,44.116-22.058  c12.604-9.217,19.537-30.25,34.662-35.213c14.574-4.726,32.536,8.114,48.685,8.114s34.111-12.84,48.684-8.114  c15.126,4.963,22.058,25.997,34.662,35.213c12.683,9.217,34.898,9.374,44.116,22.058c9.138,12.604,2.521,33.716,7.405,48.842  c0.315,0.867,0.788,1.812,1.26,2.757c4.175-3.545,8.587-6.223,13.55-6.223c12.84,0,22.058,17.725,33.166,22.294  c11.58,4.805,30.565-1.024,39.231,7.72c8.744,8.666,2.914,27.651,7.72,39.231c4.569,11.108,22.294,20.324,22.294,33.166  c0,12.84-17.725,22.058-22.294,33.166c-4.806,11.58,1.024,30.565-7.72,39.231c-8.666,8.744-27.651,2.914-39.231,7.72  c-11.108,4.569-20.324,22.294-33.166,22.294c-4.018,0-7.72-1.734-11.186-4.254c-7.562-5.515-14.337-14.889-21.979-18.04  c-11.265-4.648-29.62,0.709-38.522-7.09c-0.237-0.158-0.473-0.394-0.709-0.63c-1.182-1.103-2.049-2.442-2.757-3.86  C318.707,295.722,312.011,308.326,300.745,312.028z"/>
<g>
	<path style="fill:#231F20;" d="M497.732,191.834c-3.589-3.701-7.3-7.527-8.625-10.75c-1.46-3.522-1.582-9.071-1.698-14.438   c-0.204-9.43-0.437-20.117-7.696-27.311c-7.245-7.309-17.932-7.541-27.362-7.746c-5.366-0.116-10.916-0.238-14.46-1.707   c-3.2-1.317-7.026-5.028-10.727-8.615c-6.898-6.689-14.716-14.269-25.425-14.269c-3.176,0-6.083,0.699-8.69,1.759   c-0.341-3.634-0.349-7.605-0.356-11.71c-0.019-11.229-0.04-22.84-6.818-32.189c-6.842-9.415-18.435-13.171-28.663-16.484   c-6.615-2.143-12.863-4.165-17.169-7.295c-4.265-3.119-8.076-8.389-12.11-13.969c-6.333-8.758-13.511-18.684-24.764-22.375   c-10.783-3.499-21.705,0.042-32.272,3.463c-6.78,2.195-13.185,4.268-18.835,4.268c-5.651,0-12.055-2.074-18.836-4.268   c-10.568-3.42-21.494-6.959-32.297-3.455c-11.228,3.684-18.405,13.609-24.738,22.367c-4.036,5.58-7.846,10.849-12.093,13.954   c-4.324,3.144-10.573,5.167-17.188,7.31c-10.228,3.313-21.821,7.069-28.656,16.475c-6.811,9.342-6.854,20.944-6.894,32.165   c-0.014,3.477-0.025,6.85-0.241,10.005c-0.284-0.014-0.569-0.02-0.857-0.02c-10.709,0-18.527,7.58-25.424,14.269   c-3.701,3.589-7.528,7.3-10.75,8.624c-3.522,1.461-9.072,1.583-14.438,1.699c-9.43,0.204-20.117,0.437-27.311,7.696   c-7.31,7.244-7.542,17.932-7.747,27.362c-0.116,5.367-0.238,10.916-1.707,14.46c-1.317,3.2-5.028,7.026-8.616,10.727   C7.58,198.731,0,206.55,0,217.26c0,10.71,7.58,18.527,14.268,25.423c3.59,3.702,7.301,7.528,8.625,10.751   c1.461,3.522,1.583,9.071,1.699,14.438c0.204,9.43,0.437,20.117,7.697,27.311c7.243,7.31,17.931,7.542,27.361,7.747   c5.367,0.116,10.916,0.238,14.46,1.707c3.2,1.317,7.027,5.028,10.728,8.615c6.898,6.689,14.715,14.269,25.424,14.269   c1.331,0,2.65-0.12,3.966-0.358c10.432,12.333,59.082,72.344,59.082,118.551v47.265c0,7.625,5.513,15.729,15.729,15.729h126.044   c10.217,0,15.729-8.104,15.729-15.729v-47.265c0-49.848,56.631-115.774,60.801-120.556c3.37,1.579,6.719,2.364,10.125,2.364   c10.709,0,18.528-7.58,25.425-14.269c3.701-3.589,7.527-7.3,10.749-8.624c3.522-1.461,9.071-1.583,14.438-1.699   c9.43-0.204,20.118-0.437,27.312-7.696c7.31-7.243,7.542-17.931,7.747-27.36c0.116-5.367,0.238-10.916,1.708-14.461   c1.316-3.2,5.027-7.027,8.615-10.728C504.42,235.787,512,227.97,512,217.261C512,206.552,504.419,198.732,497.732,191.834z    M189.013,492.979v-0.135C189.016,492.931,189.013,492.979,189.013,492.979z M347.859,357.78   c-21.731,33.954-32.749,63.54-32.749,87.934v47.265c0,0-0.003,0.01-0.008,0.026c-0.006,0-0.013,0-0.019,0H189.044   c-0.015-0.068-0.025-0.136-0.031-0.197V469.32h47.294v-15.702h-47.294v-7.905c0-49.125-45.552-107.984-60.44-125.909   c2.461-2.042,4.77-4.289,7.042-6.498c3.712-3.609,7.551-7.344,10.804-8.673c3.558-1.467,9.099-1.619,14.458-1.767   c3.126-0.086,6.31-0.182,9.455-0.511l36.948,96.066h21.121v-80.877c1.588-0.49,3.166-0.996,4.717-1.496   c6.817-2.201,13.255-4.282,18.943-4.282s12.126,2.079,18.943,4.282c1.551,0.5,3.128,1.006,4.716,1.496v80.877h21.12l37.449-97.291   c5.437,1.547,11.38,1.682,16.874,1.808c5.36,0.121,10.903,0.248,14.416,1.698c3.223,1.329,7.071,5.067,10.794,8.68   c0.848,0.823,1.707,1.652,2.576,2.477C374.965,320.411,361.496,336.473,347.859,357.78z M191.912,314.745   c2.712,2.008,5.696,3.664,9.047,4.754c4.009,1.298,8.04,1.567,11.74,1.345v47.93L191.912,314.745z M291.423,368.782v-47.941   c3.706,0.222,7.745-0.05,11.774-1.354c3.346-1.099,6.327-2.754,9.034-4.763L291.423,368.782z M486.458,231.751   c-4.621,4.767-9.4,9.696-11.854,15.664c-2.594,6.249-2.747,13.298-2.895,20.116c-0.148,6.771-0.299,13.771-3.152,16.598   c-2.777,2.802-9.78,2.954-16.55,3.102c-6.817,0.149-13.866,0.301-20.092,2.885c-5.991,2.463-10.918,7.243-15.684,11.864   c-4.989,4.837-10.147,9.839-14.494,9.839c-1.873,0-4.022-0.9-6.568-2.752c-2.543-1.855-5.125-4.363-7.859-7.017   c-4.784-4.648-9.733-9.452-15.744-11.932c-6.217-2.565-13.248-2.726-20.046-2.88c-6.579-0.151-13.384-0.305-16.296-2.857   l-0.526-0.464c-0.343-0.321-0.711-0.87-1.091-1.631l-5.511-11.027l-7.663,9.657c-1.847,2.327-3.609,4.762-5.315,7.116   c-5.381,7.43-10.463,14.447-16.792,16.527c-3.199,1.035-7.138,0.868-12.771-0.541c-3.111-0.777-6.324-1.814-9.725-2.913   c-7.674-2.478-15.609-5.042-23.769-5.042c-8.161,0-16.096,2.563-23.769,5.042c-3.401,1.099-6.614,2.137-9.725,2.913   c-5.636,1.409-9.575,1.574-12.763,0.544c-6.361-2.068-11.46-9.138-16.859-16.626l-5.966-8.229l-6.356,4.624   c-0.992,0.722-2.12,1.257-3.397,1.623c-3.447,0.961-7.98,1.086-12.779,1.217c-6.777,0.187-13.785,0.38-19.989,2.938   c-6.053,2.474-11.002,7.287-15.789,11.942c-3.631,3.532-7.386,7.182-10.835,8.87c-1.335,0.613-2.471,0.898-3.571,0.898   c-4.346,0-9.505-5.002-14.494-9.839c-4.766-4.621-9.694-9.4-15.663-11.855c-6.247-2.592-13.297-2.745-20.114-2.893   c-6.771-0.148-13.772-0.299-16.599-3.152c-2.802-2.776-2.954-9.778-3.102-16.549c-0.149-6.817-0.301-13.866-2.884-20.092   c-2.464-5.992-7.244-10.919-11.866-15.685c-4.839-4.99-9.84-10.148-9.84-14.494c0-4.346,5.002-9.505,9.839-14.494   c4.621-4.766,9.399-9.694,11.855-15.663c2.592-6.247,2.745-13.297,2.893-20.114c0.148-6.771,0.299-13.772,3.152-16.6   c2.776-2.801,9.777-2.953,16.548-3.101c6.818-0.149,13.867-0.301,20.093-2.885c5.991-2.464,10.918-7.243,15.684-11.864   c4.989-4.837,10.147-9.839,14.494-9.839c0.924,0,2.178,0.388,3.835,1.188l3.824,1.846l81.322,81.322l11.104-11.104l-83.95-83.95   c0.614-4.941,0.648-9.992,0.667-14.931c0.034-9.123,0.066-17.739,3.888-22.982c3.839-5.283,12.077-7.952,20.799-10.777   c7.49-2.427,15.237-4.936,21.598-9.56c6.267-4.582,10.995-11.119,15.566-17.442c5.412-7.484,10.525-14.553,16.884-16.639   c5.933-1.924,14.025,0.693,22.591,3.466c7.642,2.474,15.543,5.032,23.671,5.032c8.129,0,16.029-2.557,23.671-5.032   c8.564-2.773,16.654-5.39,22.565-3.473c6.386,2.095,11.497,9.165,16.909,16.649c4.572,6.322,9.3,12.859,15.585,17.456   c6.344,4.609,14.089,7.118,21.579,9.545c8.722,2.825,16.961,5.494,20.794,10.77c3.793,5.23,3.807,13.858,3.823,22.993   c0.013,7.136,0.043,14.487,1.832,21.399l-92.4,76.999l10.053,12.063l89.059-74.215l0.106,0.211l7.628-6.476   c3.502-2.973,6.193-4.357,8.469-4.357c4.346,0,9.505,5.002,14.494,9.839c4.766,4.621,9.694,9.401,15.663,11.855   c6.247,2.592,13.297,2.745,20.115,2.893c6.771,0.148,13.772,0.299,16.6,3.151c2.802,2.776,2.954,9.778,3.102,16.549   c0.148,6.818,0.3,13.867,2.884,20.092c2.464,5.992,7.243,10.921,11.865,15.686c4.836,4.988,9.838,10.146,9.838,14.493   C496.298,221.606,491.296,226.764,486.458,231.751z"/>
	<rect x="252.056" y="453.613" style="fill:#231F20;" width="15.755" height="15.702"/>
</g>
<g>
	<rect x="283.576" y="453.613" style="fill:#FFFFFF;" width="15.755" height="15.702"/>
	<rect x="55.118" y="209.409" style="fill:#FFFFFF;" width="15.755" height="15.702"/>
	<rect x="70.87" y="225.163" style="fill:#FFFFFF;" width="15.755" height="15.702"/>
	<rect x="86.625" y="209.409" style="fill:#FFFFFF;" width="15.755" height="15.702"/>
	<rect x="173.282" y="75.487" style="fill:#FFFFFF;" width="15.755" height="15.702"/>
	<rect x="189.037" y="91.242" style="fill:#FFFFFF;" width="15.755" height="15.702"/>
</g>
<g>
	<rect x="417.497" y="248.801" style="fill:#231F20;" width="15.755" height="15.702"/>
	<rect x="433.252" y="233.046" style="fill:#231F20;" width="15.755" height="15.702"/>
	<rect x="417.497" y="217.281" style="fill:#231F20;" width="15.755" height="15.702"/>
</g>
<g>
</g>
<g>
</g>
<g>
</g>
<g>
</g>
<g>
</g>
<g>
</g>
<g>
</g>
<g>
</g>
<g>
</g>
<g>
</g>
<g>
</g>
<g>
</g>
<g>
</g>
<g>
</g>
<g>
</g>
</svg>
