<?xml version="1.0" encoding="iso-8859-1"?>
<!-- Generator: Adobe Illustrator 19.0.0, SVG Export Plug-In . SVG Version: 6.00 Build 0)  -->
<svg xmlns="http://www.w3.org/2000/svg" xmlns:xlink="http://www.w3.org/1999/xlink" version="1.1" id="Layer_1" x="0px" y="0px" viewBox="0 0 512.001 512.001" style="enable-background:new 0 0 512.001 512.001;" xml:space="preserve" width="512" height="512">
<path style="fill:#36C65F;" d="M361.791,37.605c-8.848,2.917-66.897,24.989-66.897,96.845l-0.68,0.486  C248.319,65.123,139.319,46.94,139.319,46.94l-1.07-1.556c33.254-23.531,73.898-37.338,117.751-37.338  C294.7,8.046,330.968,18.839,361.791,37.605z"/>
<g>
	<path style="fill:#00AC4E;" d="M314.341,200.569c37.046-30.92,83.427-51.048,134.28-55.423c6.806-0.584,13.71-0.972,20.71-0.972   c18.961,34.615,29.754,74.384,29.754,116.681c0,134.085-108.513,242.696-242.501,243.084l-0.875-0.486   c18.766-34.518,29.462-74.092,29.462-116.194s-10.695-81.677-29.462-116.194l0.875-0.486   C271.363,243.741,291.005,219.919,314.341,200.569z"/>
	<path style="fill:#00AC4E;" d="M139.319,46.94c0,0,108.999,18.183,154.893,87.997c12.057,18.183,19.738,39.866,20.127,65.633   c-23.336,19.349-42.978,43.172-57.756,70.008l-0.875,0.486C217.69,201.348,146.514,152.342,63.282,145.244l0.098-1.07   c14.196-40.157,40.643-74.579,74.87-98.79L139.319,46.94z"/>
</g>
<g>
	<path style="fill:#36C63F;" d="M448.523,144.174l0.098,0.972c-50.854,4.375-97.233,24.503-134.28,55.423   c-0.388-25.767-8.07-47.45-20.127-65.633l0.68-0.486c0-71.856,58.048-93.928,66.897-96.845   C401.754,61.816,432.674,99.446,448.523,144.174z"/>
	<path style="fill:#36C63F;" d="M285.171,387.259c0,42.102-10.695,81.677-29.462,116.194c-0.098,0.194-0.194,0.292-0.292,0.486   C121.428,503.55,12.916,394.94,12.916,260.854c0-42.296,10.793-82.065,29.754-116.681c7,0,13.807,0.292,20.614,1.07   c83.232,7.098,154.407,56.104,192.426,125.821C274.475,305.582,285.171,345.156,285.171,387.259z"/>
</g>
<g>
	<path style="fill:#231F20;" d="M476.389,140.308l-2.289-4.18h-4.767c-4.711,0-9.669,0.174-15.01,0.52   c-16.82-44.016-48.036-81.496-88.346-105.915C332.954,10.627,294.924,0,256.001,0c-44.187,0-86.511,13.423-122.397,38.815   c-34.794,24.614-60.989,58.359-76.02,97.823c-4.672-0.34-9.598-0.511-14.914-0.511h-4.767l-2.289,4.181   C15.5,177.026,4.87,218.71,4.87,260.855c0,66.978,26.052,129.966,73.356,177.362c47.284,47.375,110.204,73.574,177.168,73.769   l5.002,0.015l0.036-0.072c65.531-1.162,126.962-27.239,173.344-73.711c47.305-47.397,73.356-110.386,73.356-177.362   C507.131,218.709,496.5,177.025,476.389,140.308z M437.642,138.233c-42.25,5.388-82.047,21.366-116.382,46.688   c-2.377-18.347-8.505-35.519-18.304-51.24c0.171-27.617,9.451-50.388,27.615-67.676c11.692-11.128,24.138-17.025,30.309-19.492   C395.313,68.312,422.237,100.531,437.642,138.233z M256.001,16.093c30.628,0,60.638,7.141,87.717,20.723   c-7.203,3.887-15.858,9.554-24.24,17.532c-16.727,15.919-27.272,36.373-31.054,59.918c-16.306-18.389-42.896-39.684-85.863-56.972   c-17.797-7.16-33.871-11.827-45.186-14.654C187.198,25.229,220.961,16.093,256.001,16.093z M138.71,55.006   c9.31,1.721,107.269,21.206,148.797,84.377c11.451,17.269,17.717,36.618,18.668,57.565c-19.652,16.827-36.477,36.503-50.16,58.662   C216.144,190.868,149.566,147.867,74.21,138.335C87.676,105.184,109.792,76.595,138.71,55.006z M250.648,495.831   c-60.884-1.385-117.905-25.772-161.032-68.983C45.344,382.49,20.963,323.539,20.963,260.854c0-37.84,9.15-75.273,26.503-108.583   c5.356,0.116,10.266,0.436,14.904,0.966l0.231,0.023c78.61,6.703,148.159,52.182,186.039,121.646   c18.636,34.277,28.486,73.127,28.486,112.352C277.124,425.049,267.982,462.491,250.648,495.831z M422.385,426.848   c-41.373,41.452-95.536,65.578-153.626,68.694c16.029-33.641,24.458-70.806,24.458-108.285c0-40.184-9.687-80.003-28.049-115.515   c14.181-24.986,32.433-46.842,54.328-64.997c37.066-30.937,81.956-49.465,129.812-53.583c5.495-0.471,10.523-0.763,15.232-0.881   c17.348,33.306,26.497,70.738,26.497,108.572C491.038,323.539,466.657,382.491,422.385,426.848z"/>
	<path style="fill:#231F20;" d="M147.438,423.273c4.584,2.833,10.695,6.531,17.314,10.003l7.477-14.251   c-6.173-3.239-11.97-6.747-16.329-9.442L147.438,423.273z"/>
</g>
<path style="fill:#FFFFFF;" d="M71.93,282.683c-2.404-33.081,6.749-57.604,6.842-57.849l-7.515-2.874l-7.511-2.887  c-0.426,1.107-10.406,27.555-7.919,64.024c2.295,33.659,16.091,82.527,68.78,124.184l9.981-12.625  C96.204,364.31,75.124,326.638,71.93,282.683z"/>
<g>
	<rect x="362.959" y="398.653" style="fill:#231F20;" width="19.451" height="16.093"/>
	<rect x="382.4" y="379.213" style="fill:#231F20;" width="19.451" height="16.093"/>
	<rect x="401.851" y="359.762" style="fill:#231F20;" width="19.451" height="16.093"/>
</g>
<g>
</g>
<g>
</g>
<g>
</g>
<g>
</g>
<g>
</g>
<g>
</g>
<g>
</g>
<g>
</g>
<g>
</g>
<g>
</g>
<g>
</g>
<g>
</g>
<g>
</g>
<g>
</g>
<g>
</g>
</svg>
