<?xml version="1.0" encoding="iso-8859-1"?>
<!-- Generator: Adobe Illustrator 19.0.0, SVG Export Plug-In . SVG Version: 6.00 Build 0)  -->
<svg xmlns="http://www.w3.org/2000/svg" xmlns:xlink="http://www.w3.org/1999/xlink" version="1.1" id="Layer_1" x="0px" y="0px" viewBox="0 0 511.999 511.999" style="enable-background:new 0 0 511.999 511.999;" xml:space="preserve" width="512" height="512">
<path style="fill:#00A052;" d="M314.874,132.947c-16.191,0-29.438-13.247-29.438-29.438s13.247-29.438,29.438-29.438h58.875  c16.191,0,29.438,13.247,29.438,29.438c0,8.096-3.311,15.455-8.684,20.753c-5.299,5.373-12.659,8.684-20.753,8.684h-58.876V132.947z  "/>
<path style="fill:#36C63F;" d="M226.561,103.509c0,16.191-13.247,29.438-29.438,29.438h-58.875  c-16.191,0-29.438-13.247-29.438-29.438c0-8.096,3.312-15.455,8.684-20.753c5.299-5.373,12.659-8.684,20.753-8.684h58.875  C213.314,74.071,226.561,87.318,226.561,103.509z"/>
<path style="fill:#00AC4E;" d="M285.436,96.15c0,16.19-13.247,29.438-29.438,29.438S226.56,112.341,226.56,96.15V37.274  c0-16.191,13.247-29.438,29.438-29.438c8.096,0,15.455,3.312,20.753,8.684c5.373,5.299,8.684,12.659,8.684,20.753V96.15H285.436z"/>
<path style="fill:#F25B22;" d="M334.817,177.103c9.346,25.758,8.021,59.243-5.225,95.672  c-29.438,80.953,14.719,139.829-73.594,228.142c-88.313-88.313-44.156-147.188-73.594-228.142s0-147.188,73.594-147.188  C296.475,125.587,323.558,145.604,334.817,177.103z"/>
<rect x="248.165" y="29.915" style="fill:#FFFFFF;" width="15.673" height="14.722"/>
<path style="fill:#231F20;" d="M373.749,66.235h-58.876c-8.048,0-15.502,2.572-21.601,6.926V37.274  c0-9.954-3.899-19.291-10.979-26.295C275.289,3.898,265.953,0,255.998,0c-20.553,0-37.274,16.721-37.274,37.274V73.16  c-6.099-4.354-13.553-6.926-21.602-6.926h-58.875c-9.955,0-19.291,3.898-26.294,10.979c-7.081,7.003-10.979,16.34-10.979,26.294  c0,20.553,16.721,37.275,37.275,37.275h53.22c-4.026,3.778-7.692,7.998-10.962,12.667c-20.846,29.762-22.839,74.231-5.467,122.004  c10.079,27.716,11.205,53.346,12.295,78.13c2.028,46.154,4.126,93.879,63.123,152.875l5.541,5.541l5.541-5.541  c58.997-58.996,61.094-106.722,63.123-152.875c1.09-24.784,2.216-50.413,12.295-78.129c13.52-37.177,15.375-73.055,5.24-100.988  c-4.814-13.466-12.217-24.784-21.784-33.682h53.336c9.956,0,19.291-3.898,26.294-10.979c7.08-7.004,10.979-16.34,10.979-26.295  C411.023,82.956,394.303,66.235,373.749,66.235z M234.397,37.274c0-11.91,9.69-21.601,21.601-21.601  c5.746,0,11.135,2.255,15.174,6.351l0.076,0.076c4.095,4.039,6.351,9.428,6.351,15.174v58.875c0,9.145-5.722,16.961-13.765,20.107  V59.353H248.16v56.904c-8.043-3.146-13.764-10.963-13.764-20.107V37.274H234.397z M138.248,125.11  c-11.91,0-21.602-9.69-21.602-21.602c0-5.746,2.256-11.135,6.351-15.174l0.076-0.076c4.038-4.095,9.427-6.351,15.174-6.351h58.875  c9.145,0,16.961,5.721,20.107,13.764h-56.906v15.673h56.906c-3.146,8.043-10.963,13.765-20.107,13.765  C197.122,125.11,138.248,125.11,138.248,125.11z M322.798,169.266h-74.159v15.673h80.489c6.91,23.774,4.521,53.749-6.9,85.158  c-2.091,5.751-3.819,11.384-5.263,16.919h-60.967v15.673h57.545c-3.097,17.443-3.826,33.996-4.538,50.204  c-0.871,19.817-1.722,39.151-7.025,59.232h-38.622v15.673h33.564c-7.43,19.344-19.822,39.63-40.923,61.887  c-43.208-45.577-49.924-82.891-52.214-120.762h52.214V353.25h-52.99c-0.005-0.119-0.01-0.238-0.016-0.357  c-1.141-25.967-2.322-52.818-13.223-82.797c-3.255-8.952-5.763-17.741-7.55-26.283h59.061V228.14h-61.553  c-2.766-25.959,1.801-48.831,13.618-65.7c13.297-18.984,34.962-29.018,62.654-29.018  C286.996,133.423,310.306,146.042,322.798,169.266z M389,118.683l-0.076,0.076c-4.039,4.096-9.428,6.351-15.174,6.351h-58.876  c-9.145,0-16.961-5.722-20.107-13.765h56.904V95.672h-56.904c3.146-8.043,10.963-13.764,20.107-13.764h58.876  c11.91,0,21.6,9.69,21.6,21.601C395.35,109.254,393.095,114.644,389,118.683z"/>
<g>
	<rect x="366.391" y="95.668" style="fill:#FFFFFF;" width="14.722" height="15.673"/>
	<rect x="130.889" y="95.668" style="fill:#FFFFFF;" width="14.722" height="15.673"/>
	<rect x="219.201" y="169.268" style="fill:#FFFFFF;" width="14.722" height="15.673"/>
</g>
<rect x="256.001" y="228.136" style="fill:#231F20;" width="14.722" height="15.673"/>
<rect x="226.557" y="287.014" style="fill:#FFFFFF;" width="14.722" height="15.673"/>
<rect x="270.713" y="353.248" style="fill:#231F20;" width="14.722" height="15.673"/>
<rect x="233.923" y="412.126" style="fill:#FFFFFF;" width="14.722" height="15.673"/>
<g>
</g>
<g>
</g>
<g>
</g>
<g>
</g>
<g>
</g>
<g>
</g>
<g>
</g>
<g>
</g>
<g>
</g>
<g>
</g>
<g>
</g>
<g>
</g>
<g>
</g>
<g>
</g>
<g>
</g>
</svg>
