<?xml version="1.0" encoding="iso-8859-1"?>
<!-- Generator: Adobe Illustrator 19.0.0, SVG Export Plug-In . SVG Version: 6.00 Build 0)  -->
<svg xmlns="http://www.w3.org/2000/svg" xmlns:xlink="http://www.w3.org/1999/xlink" version="1.1" id="Layer_1" x="0px" y="0px" viewBox="0 0 512 512" style="enable-background:new 0 0 512 512;" xml:space="preserve" width="512" height="512">
<g>
	<rect x="416.016" y="7.974" style="fill:#E7ECED;" width="32.002" height="312.036"/>
	<rect x="79.983" y="360.007" style="fill:#E7ECED;" width="256.027" height="48.003"/>
</g>
<g>
	<path style="fill:#FFD311;" d="M287.043,223.996c0,0,15.921,55.606-79.048,56.006v-7.521   C211.275,257.2,225.436,223.996,287.043,223.996z"/>
	<path style="fill:#FFD311;" d="M207.514,275.283c-0.48,2.96-0.48,4.721-0.48,4.721c-94.971-0.4-79.048-56.006-79.048-56.006   C193.673,223.996,205.435,261.761,207.514,275.283z"/>
	<path style="fill:#FFD311;" d="M287.043,135.988c0,0,15.921,55.606-79.048,56.006v-7.521   C211.275,169.191,225.436,135.988,287.043,135.988z"/>
	<path style="fill:#FFD311;" d="M207.514,187.273c-0.48,2.96-0.48,4.721-0.48,4.721c-94.971-0.4-79.048-56.006-79.048-56.006   C193.673,135.988,205.435,173.751,207.514,187.273z"/>
	<path style="fill:#FFD311;" d="M287.043,55.979c0,0,15.921,55.606-79.048,56.006v-7.521   C211.275,89.183,225.436,55.979,287.043,55.979z"/>
	<path style="fill:#FFD311;" d="M207.514,107.264c-0.48,2.96-0.48,4.721-0.48,4.721c-94.971-0.4-79.048-56.006-79.048-56.006   C193.673,55.979,205.435,93.743,207.514,107.264z"/>
</g>
<polygon style="fill:#754C29;" points="384.014,504.026 384.014,7.974 416.017,7.974 416.017,320.007 448.02,320.007 448.02,7.974   480.024,7.974 480.024,504.026 "/>
<path style="fill:#A97C50;" d="M207.995,280.003c94.971-0.4,79.048-56.006,79.048-56.006c-61.607,0-75.768,33.203-79.048,48.486  c-0.24,1.04-0.4,2-0.481,2.8c-2.081-13.522-13.842-51.285-79.529-51.285c0,0-15.921,55.606,79.048,56.006  C207.355,280.003,207.675,280.003,207.995,280.003z M207.995,191.993c94.971-0.4,79.048-56.006,79.048-56.006  c-61.607,0-75.768,33.203-79.048,48.485c-0.24,1.04-0.4,2-0.481,2.8c-2.081-13.522-13.842-51.285-79.529-51.285  c0,0-15.921,55.606,79.048,56.006C207.355,191.993,207.675,191.993,207.995,191.993z M207.995,111.985  c94.971-0.4,79.048-56.006,79.048-56.006c-61.607,0-75.768,33.203-79.048,48.485c-0.24,1.04-0.4,2-0.481,2.8  c-2.081-13.522-13.842-51.285-79.529-51.285c0,0-15.921,55.606,79.048,56.006C207.355,111.985,207.675,111.985,207.995,111.985z   M384.014,7.974v496.053H31.976V7.974H384.014z M336.008,408.017v-48.005H79.981v48.005H336.008z"/>
<g>
	<path style="fill:#231F20;" d="M24.002,0v512h463.996V0H24.002z M376.04,496.052H39.95V15.948h336.09V496.052z M423.991,15.948   h16.056v296.085h-16.056V15.948z M472.05,496.052h-80.063V15.948h16.055v312.033h47.952V15.948h16.055L472.05,496.052   L472.05,496.052z"/>
	<path style="fill:#231F20;" d="M127.985,216.023h-6.011l-1.655,5.78c-0.24,0.84-5.736,20.79,7.886,38.937   c12.505,16.66,36.325,25.747,70.855,27.067v0.17h0.96v40.031h15.948v-40.202c34.53-1.319,58.35-10.407,70.854-27.067   c13.622-18.149,8.126-38.097,7.886-38.937l-1.655-5.78h-6.011c-37.237,0-58.702,11.569-71.074,24.725v-40.95   c34.53-1.319,58.35-10.407,70.854-27.067c13.622-18.149,8.126-38.097,7.886-38.937l-1.655-5.78h-6.011   c-37.237,0-58.702,11.569-71.074,24.725v-32.95c34.53-1.319,58.35-10.407,70.854-27.068c13.622-18.149,8.126-38.097,7.886-38.937   l-1.655-5.78h-6.011c-37.237,0-58.702,11.569-71.074,24.726V47.978h-15.948v25.884c-12.199-13.607-33.798-25.858-72.035-25.858   h-6.011l-1.655,5.78c-0.24,0.84-5.736,20.789,7.886,38.937c12.505,16.661,36.325,25.748,70.855,27.068v0.17h0.96v33.913   c-12.199-13.607-33.798-25.858-72.035-25.858h-6.011l-1.655,5.779c-0.24,0.84-5.736,20.79,7.886,38.937   c12.505,16.66,36.325,25.747,70.855,27.067v0.17h0.96v41.914C187.822,228.274,166.223,216.023,127.985,216.023z M141.108,251.362   c-5.28-6.92-6.272-14.274-6.173-19.237c46.729,2.109,59.987,25.51,63.722,39.708C170.232,270.593,150.425,263.573,141.108,251.362z    M280.09,232.123c0.101,4.975-0.894,12.325-6.17,19.238c-9.322,12.217-29.147,19.238-57.572,20.473   C220.379,256.68,234.139,234.182,280.09,232.123z M280.09,144.115c0.101,4.975-0.894,12.325-6.17,19.238   c-9.322,12.217-29.147,19.238-57.572,20.473C220.379,168.67,234.139,146.172,280.09,144.115z M280.09,64.105   c0.101,4.975-0.894,12.325-6.17,19.238c-9.322,12.218-29.147,19.238-57.572,20.473C220.379,88.663,234.139,66.162,280.09,64.105z    M141.108,83.344c-5.28-6.92-6.272-14.274-6.173-19.237c46.733,2.109,59.988,25.511,63.722,39.709   C170.233,102.575,150.425,95.554,141.108,83.344z M141.108,163.352c-5.28-6.92-6.272-14.274-6.173-19.237   c46.729,2.109,59.987,25.51,63.722,39.708C170.232,182.583,150.425,175.564,141.108,163.352z"/>
	<path style="fill:#231F20;" d="M343.982,352.038H72.007v63.952h271.976v-63.952H343.982z M328.034,400.043H87.955v-32.056h240.08   v32.056H328.034z"/>
</g>
<rect x="71.978" y="440.044" style="fill:#FFFFFF;" width="16.001" height="15.948"/>
<rect x="103.98" y="440.044" style="fill:#231F20;" width="16.001" height="15.948"/>
<g>
	<rect x="175.99" y="440.044" style="fill:#FFFFFF;" width="168.016" height="15.948"/>
	<rect x="408.02" y="352.033" style="fill:#FFFFFF;" width="48.003" height="15.948"/>
</g>
<rect x="408.02" y="392.041" style="fill:#231F20;" width="48.003" height="15.948"/>
<rect x="408.02" y="432.049" style="fill:#FFFFFF;" width="48.003" height="15.948"/>
<rect x="103.98" y="376.04" style="fill:#231F20;" width="208.024" height="15.948"/>
<g>
</g>
<g>
</g>
<g>
</g>
<g>
</g>
<g>
</g>
<g>
</g>
<g>
</g>
<g>
</g>
<g>
</g>
<g>
</g>
<g>
</g>
<g>
</g>
<g>
</g>
<g>
</g>
<g>
</g>
</svg>
