<?xml version="1.0" encoding="iso-8859-1"?>
<!-- Generator: Adobe Illustrator 19.0.0, SVG Export Plug-In . SVG Version: 6.00 Build 0)  -->
<svg xmlns="http://www.w3.org/2000/svg" xmlns:xlink="http://www.w3.org/1999/xlink" version="1.1" id="Layer_1" x="0px" y="0px" viewBox="0 0 512 512" style="enable-background:new 0 0 512 512;" xml:space="preserve" width="512" height="512">
<g>
	<polygon style="fill:#FDB51E;" points="306.367,327.352 306.367,360.929 281.184,377.718 256.001,360.929 256.001,327.352    281.184,310.563  "/>
	<polygon style="fill:#FDB51E;" points="281.184,377.718 281.184,411.295 256.001,428.084 230.817,411.295 230.817,377.718    256.001,360.929  "/>
	<polygon style="fill:#FDB51E;" points="256.001,327.352 256.001,360.929 230.817,377.718 205.634,360.929 205.634,327.352    230.817,310.563  "/>
</g>
<path style="fill:#00ABD5;" d="M88.113,318.958v-41.972h335.775v41.972v142.704H88.113V318.958z M306.367,360.929v-33.577  l-25.183-16.789l-25.183,16.789l-25.183-16.789l-25.183,16.789v33.577l25.183,16.789v33.577l25.183,16.789l25.183-16.789v-33.577  L306.367,360.929z"/>
<g>
	<polygon style="fill:#E7ECED;" points="474.254,176.253 37.746,176.253 79.719,134.282 104.902,134.282 407.098,134.282    432.281,134.282  "/>
	<path style="fill:#E7ECED;" d="M474.254,226.619c-43.651,0-43.651-16.789-87.301-16.789c-43.735,0-43.735,16.789-87.386,16.789   s-43.651-16.789-87.217-16.789c-43.651,0-43.651,16.789-87.301,16.789c-43.651,0-43.651-16.789-87.301-16.789v-33.577h436.507   v50.366H474.254z"/>
</g>
<rect x="104.901" y="100.706" style="fill:#7E8488;" width="302.196" height="33.576"/>
<path style="fill:#9DA1A4;" d="M82.069,67.126c-1.427-2.519-2.35-5.289-2.35-8.394V25.155c0-9.234,7.555-16.789,16.789-16.789  h318.986c9.234,0,16.789,7.555,16.789,16.789v33.577c0,3.106-0.924,5.876-2.35,8.394h19.139v33.577h-41.972H104.902H62.929V67.126  h16.789H82.069z"/>
<path style="fill:#FFD311;" d="M37.746,209.83c43.651,0,43.651,16.789,87.301,16.789c43.651,0,43.651-16.789,87.301-16.789  c43.566,0,43.566,16.789,87.217,16.789s43.651-16.789,87.386-16.789c43.651,0,43.651,16.789,87.301,16.789v277.015H37.746V209.83z   M423.887,461.662V318.958v-41.972H88.113v41.972v142.704H423.887z"/>
<path style="fill:#231F20;" d="M477.718,167.887l-41.972-41.972h-20.283V109.07h41.972V58.76h-16.789c0-0.009,0-0.019,0-0.028  V25.155C440.648,11.284,429.363,0,415.493,0H96.507c-13.87,0-25.154,11.284-25.154,25.155v33.577c0,0.009,0,0.019,0,0.028H54.563  v50.309h41.972v16.846H76.254l-41.972,41.972H12.563v16.732H29.38V512h453.24V184.619h16.817v-16.732H477.718z M71.296,92.337  V75.493h8.423h193.07V58.76H88.087c0-0.009-0.002-0.019-0.002-0.028V25.155c0-4.644,3.778-8.423,8.422-8.423h318.987  c4.644,0,8.422,3.778,8.422,8.423v33.577c0,1.393-0.4,2.75-1.263,4.27l-7.078,12.49h25.128v16.845H71.296z M398.732,109.07v16.846  H113.268V109.07H398.732z M83.183,142.648h345.632l25.24,25.24H57.944L83.183,142.648z M465.888,495.268H46.112V218.446  c14.838,0.896,23.362,4.156,32.281,7.588c11.443,4.402,23.276,8.952,46.654,8.952s35.21-4.551,46.654-8.952  c10.479-4.03,20.375-7.836,40.647-7.836c20.218,0,30.097,3.804,40.556,7.83c11.44,4.405,23.271,8.96,46.663,8.96  c23.366,0,35.201-4.548,46.645-8.945c10.498-4.034,20.413-7.844,40.739-7.844c20.272,0,30.169,3.807,40.647,7.836  c9.99,3.843,20.279,7.798,38.288,8.741v260.493H465.888z M465.888,218.003c-14.837-0.896-23.362-4.156-32.281-7.586  c-11.443-4.402-23.275-8.952-46.654-8.952c-23.431,0-35.28,4.553-46.741,8.957c-10.481,4.028-20.381,7.832-40.644,7.832  c-20.282,0-30.176-3.809-40.65-7.842c-11.426-4.398-23.24-8.946-46.567-8.946c-23.378,0-35.211,4.551-46.654,8.952  c-10.479,4.03-20.375,7.836-40.647,7.836s-30.169-3.807-40.647-7.836c-9.99-3.843-20.279-7.798-38.288-8.741v-17.056H465.89v33.382  H465.888z"/>
<rect x="289.58" y="58.76" style="fill:#FFFFFF;" width="16.788" height="16.732"/>
<rect x="323.156" y="58.76" style="fill:#231F20;" width="16.788" height="16.732"/>
<rect x="356.732" y="58.76" style="fill:#FFFFFF;" width="16.788" height="16.732"/>
<g>
	<path style="fill:#231F20;" d="M79.746,470.028h352.506V268.619H79.746V470.028z M96.479,327.323h50.394v-16.732H96.479v-25.239   H415.52v25.239h-50.394v16.732h50.394v125.973H96.479V327.323z"/>
	<path style="fill:#231F20;" d="M256.001,317.297l-25.183-16.788l-33.549,22.365v42.533l25.183,16.788v33.578l33.549,22.365   l33.549-22.365v-33.578l25.182-16.788v-42.532l-33.548-22.365L256.001,317.297z M213.999,356.452v-24.622l16.817-11.212   l16.817,11.211v24.623l-16.817,11.212L213.999,356.452z M272.818,406.818l-16.817,11.212l-16.817-11.212v-24.622l16.817-11.212   l16.817,11.211V406.818z M298,356.453l-16.816,11.211l-16.817-11.212v-24.622l16.817-11.212L298,331.828V356.453z"/>
	<rect x="163.664" y="310.595" style="fill:#231F20;" width="16.788" height="16.732"/>
	<rect x="331.544" y="310.595" style="fill:#231F20;" width="16.788" height="16.732"/>
</g>
<polygon style="fill:#FFFFFF;" points="130.057,394.506 113.325,394.506 113.325,436.451 155.268,436.451 155.268,419.718   130.057,419.718 "/>
<rect x="172.053" y="419.723" style="fill:#231F20;" width="16.788" height="16.732"/>
<g>
</g>
<g>
</g>
<g>
</g>
<g>
</g>
<g>
</g>
<g>
</g>
<g>
</g>
<g>
</g>
<g>
</g>
<g>
</g>
<g>
</g>
<g>
</g>
<g>
</g>
<g>
</g>
<g>
</g>
</svg>
