<?xml version="1.0" encoding="iso-8859-1"?>
<!-- Generator: Adobe Illustrator 19.0.0, SVG Export Plug-In . SVG Version: 6.00 Build 0)  -->
<svg xmlns="http://www.w3.org/2000/svg" xmlns:xlink="http://www.w3.org/1999/xlink" version="1.1" id="Layer_1" x="0px" y="0px" viewBox="0 0 512 512" style="enable-background:new 0 0 512 512;" xml:space="preserve" width="512" height="512">
<path style="fill:#EF3E25;" d="M271.265,297.98c12.593,0,22.898,10.304,22.898,22.898v30.531c0,12.595-10.304,22.898-22.898,22.898  c-5.877,0-11.22-2.29-15.266-5.953c-4.045,3.664-9.389,5.953-15.266,5.953c-12.593,0-22.898-10.304-22.898-22.898v-30.531  c0-12.593,10.304-22.898,22.898-22.898c5.725,0,10.915,2.137,14.884,5.648c0.152,0.076,0.229,0.229,0.382,0.306  C260.045,300.27,265.388,297.98,271.265,297.98z"/>
<polygon style="fill:#808487;" points="339.96,7.938 339.96,68.999 309.428,68.999 202.571,68.999 172.04,68.999 172.04,7.938 "/>
<path style="fill:#36C63F;" d="M255.618,303.628c-3.969-3.511-9.159-5.648-14.884-5.648c-12.593,0-22.898,10.304-22.898,22.898  v30.531c0,12.595,10.304,22.898,22.898,22.898c5.877,0,11.22-2.29,15.266-5.953c4.045,3.664,9.388,5.953,15.266,5.953  c12.593,0,22.898-10.304,22.898-22.898v-30.531c0-12.593-10.304-22.898-22.898-22.898c-5.877,0-11.22,2.29-15.266,5.953  C255.847,303.857,255.771,303.704,255.618,303.628z M347.591,244.551v160.286H164.407V244.551H347.591z"/>
<path style="fill:#C3C7C9;" d="M179.672,137.693l22.898-30.531V68.999h106.858v38.164l22.899,30.531  c8.396,0,15.265,6.87,15.265,15.266v22.898c-22.898,0-22.898,15.266-45.797,15.266c-22.974,0-22.974-15.266-45.873-15.266  s-22.898,15.266-45.797,15.266c-22.822,0-22.822-15.266-45.719-15.266v-22.898C164.407,144.563,171.277,137.693,179.672,137.693z"/>
<g>
	<path style="fill:#E7ECED;" d="M347.591,404.837v83.959c0,8.396-6.87,15.266-15.265,15.266H179.672   c-8.396,0-15.266-6.87-15.266-15.266v-83.959H347.591z"/>
	<path style="fill:#E7ECED;" d="M347.591,175.857v68.694H164.407v-68.694c22.898,0,22.898,15.266,45.719,15.266   c22.898,0,22.898-15.266,45.797-15.266s22.898,15.266,45.873,15.266C324.694,191.123,324.694,175.857,347.591,175.857z"/>
</g>
<path style="fill:#231F20;" d="M336.59,130.149l-19.223-25.633v-27.58h30.531V0H164.102v76.937h30.532v27.58l-19.224,25.633  c-10.766,2.007-18.939,11.472-18.939,22.81v335.838c0,12.794,10.409,23.203,23.203,23.203h152.654  c12.795,0,23.204-10.409,23.204-23.203V152.958C355.529,141.621,347.355,132.155,336.59,130.149z M179.977,61.061V15.875h22.289  v30.226h15.875V15.875h29.921v30.226h15.875V15.875h29.921v30.226h15.875V15.875h22.288v45.186H179.977z M339.654,488.797  c0,4.04-3.287,7.327-7.328,7.327H179.672c-4.04,0-7.327-3.286-7.327-7.327v-76.022h167.308V488.797z M339.654,396.9H172.345V252.49  h167.308V396.9z M339.654,236.614H172.345V184.73c4.149,1.103,7.122,3.077,10.556,5.37c5.978,3.991,13.418,8.96,27.226,8.96  c13.852,0,21.309-4.971,27.301-8.966c5.279-3.519,9.45-6.299,18.496-6.299c9.038,0,13.212,2.777,18.495,6.293  c6.006,3.997,13.48,8.972,27.378,8.972c13.852,0,21.309-4.971,27.301-8.966c3.437-2.29,6.411-4.262,10.558-5.364v51.885H339.654z   M339.654,168.536c-8.978,1.446-14.635,5.197-19.364,8.349c-5.279,3.519-9.449,6.299-18.495,6.299  c-9.098,0-13.282-2.786-18.582-6.313c-5.993-3.989-13.452-8.953-27.291-8.953c-13.853,0-21.31,4.971-27.302,8.966  c-5.279,3.519-9.449,6.299-18.495,6.299c-8.995,0-13.149-2.774-18.408-6.287c-4.729-3.157-10.386-6.915-19.373-8.362v-15.578  c0-4.04,3.286-7.327,7.327-7.327h3.969h57.092v-15.875h-45.186l14.961-19.948V76.937h90.982v32.872l26.867,35.824h3.97  c4.04,0,7.328,3.286,7.328,7.327v15.577H339.654z"/>
<rect x="255.997" y="129.756" style="fill:#FFFFFF;" width="15.265" height="15.875"/>
<g>
	<rect x="286.531" y="129.756" style="fill:#231F20;" width="15.266" height="15.875"/>
	<path style="fill:#231F20;" d="M240.735,382.244c5.383,0,10.633-1.434,15.266-4.117c4.632,2.682,9.882,4.117,15.265,4.117   c17.003,0,30.837-13.833,30.837-30.837v-30.531c0-17.003-13.833-30.835-30.837-30.835c-2.825,0-5.61,0.405-8.291,1.168   c0.344-2.625,1.072-4.741,2.163-6.046c0.769-0.921,2.243-2.144,6.128-2.144v-15.875c-9.716,0-15.318,4.261-18.308,7.836   c-3.794,4.538-5.409,10.243-5.909,15.735c-2.063-0.438-4.176-0.673-6.314-0.673c-17.004,0-30.837,13.832-30.837,30.835v30.531   C209.898,368.412,223.731,382.244,240.735,382.244z M225.774,320.878c0-8.249,6.711-14.96,14.961-14.96   c4.539,0,7.74,1.988,9.626,3.656l6.946,3.887l4.024-3.644c2.775-2.514,6.305-3.899,9.936-3.899c8.25,0,14.961,6.711,14.961,14.96   v30.531c0,8.25-6.711,14.961-14.961,14.961c-3.631,0-7.161-1.385-9.936-3.899l-5.329-4.827l-5.329,4.827   c-2.775,2.514-6.305,3.899-9.937,3.899c-8.25,0-14.961-6.711-14.961-14.961v-30.531H225.774z"/>
	<rect x="248.367" y="328.21" style="fill:#231F20;" width="15.266" height="15.875"/>
</g>
<rect x="187.309" y="267.142" style="fill:#FFFFFF;" width="15.266" height="15.875"/>
<rect x="187.309" y="366.374" style="fill:#231F20;" width="15.266" height="15.875"/>
<rect x="309.434" y="366.374" style="fill:#FFFFFF;" width="15.265" height="15.875"/>
<g>
	<rect x="309.434" y="267.142" style="fill:#231F20;" width="15.265" height="15.875"/>
	<polygon style="fill:#231F20;" points="233.102,465.594 202.876,465.594 202.876,450.633 187,450.633 187,481.469 233.102,481.469     "/>
	<rect x="248.367" y="465.596" style="fill:#231F20;" width="15.266" height="15.875"/>
</g>
<g>
</g>
<g>
</g>
<g>
</g>
<g>
</g>
<g>
</g>
<g>
</g>
<g>
</g>
<g>
</g>
<g>
</g>
<g>
</g>
<g>
</g>
<g>
</g>
<g>
</g>
<g>
</g>
<g>
</g>
</svg>
