<?xml version="1.0" encoding="iso-8859-1"?>
<!-- Generator: Adobe Illustrator 19.0.0, SVG Export Plug-In . SVG Version: 6.00 Build 0)  -->
<svg xmlns="http://www.w3.org/2000/svg" xmlns:xlink="http://www.w3.org/1999/xlink" version="1.1" id="Layer_1" x="0px" y="0px" viewBox="0 0 512 512" style="enable-background:new 0 0 512 512;" xml:space="preserve" width="512" height="512">
<rect x="187.304" y="236.919" style="fill:#E7ECED;" width="137.396" height="30.533"/>
<path style="fill:#00ABD5;" d="M355.232,206.384V404.85H156.766V206.384H355.232z M324.698,267.451v-30.533H187.299v30.533H324.698z  "/>
<polygon style="fill:#7E8488;" points="317.065,7.919 317.065,53.719 286.532,53.719 225.465,53.719 194.933,53.719 194.933,7.919   "/>
<g>
	<path style="fill:#E7ECED;" d="M355.232,404.849v83.966c0,8.397-6.87,15.266-15.266,15.266H172.033   c-8.397,0-15.266-6.87-15.266-15.266v-83.966L355.232,404.849L355.232,404.849z"/>
	<path style="fill:#E7ECED;" d="M355.232,152.952v53.433H156.766v-68.699c19.847,0,19.847,15.266,39.693,15.266   s19.847-15.266,39.617-15.266c19.847,0,19.847,15.266,39.693,15.266c19.847,0,19.847-15.266,39.769-15.266   C335.385,137.684,335.385,152.952,355.232,152.952z"/>
</g>
<path style="fill:#C3C7C9;" d="M355.232,122.418v30.533c-19.847,0-19.847-15.266-39.693-15.266  c-19.923,0-19.923,15.266-39.769,15.266c-19.847,0-19.847-15.266-39.693-15.266c-19.771,0-19.771,15.266-39.617,15.266  s-19.847-15.266-39.693-15.266v-15.266c0,0,0-15.266,15.266-15.266s53.433-53.433,53.433-53.433h61.066  c0,0,38.166,53.433,53.433,53.433C355.232,107.151,355.232,122.418,355.232,122.418z"/>
<g>
	<path style="fill:#231F20;" d="M340.049,99.236c0,0-0.004,0-0.005,0c-0.273-0.03-6.919-0.989-26.991-24.52   c-3.883-4.552-7.541-9.101-10.647-13.08h22.578V0H187.014v61.637h22.579c-3.106,3.977-6.764,8.528-10.647,13.08   c-20.074,23.53-26.719,24.49-26.912,24.517c-17.011,0-23.185,13.865-23.185,23.185v366.397c0,12.784,10.401,23.185,23.185,23.185   h167.932c12.784,0,23.186-10.4,23.186-23.185V122.418C363.15,113.099,356.978,99.236,340.049,99.236z M202.851,45.799V15.838   h106.295v29.961H202.851z M347.313,488.815c0,4.051-3.296,7.348-7.349,7.348H172.033c-4.051,0-7.348-3.295-7.348-7.348v-76.048   h182.628L347.313,488.815L347.313,488.815z M347.313,396.93H164.685l-0.001-182.628h182.629L347.313,396.93L347.313,396.93z    M347.313,198.465H164.685v-51.433c2.553,1.072,4.644,2.672,7.1,4.562c5.373,4.131,12.059,9.276,24.675,9.276   c12.63,0,19.314-5.151,24.685-9.29c4.501-3.469,7.753-5.976,14.932-5.976c7.23,0,10.496,2.513,15.018,5.991   c5.373,4.131,12.059,9.276,24.675,9.276c12.604,0,19.291-5.135,24.663-9.26c4.542-3.487,7.824-6.007,15.106-6.007   c7.23,0,10.496,2.513,15.018,5.991c4.118,3.166,9.018,6.919,16.757,8.503v38.368H347.313z M347.313,143.603   c-2.554-1.072-4.644-2.672-7.102-4.562c-5.372-4.133-12.058-9.276-24.674-9.276c-12.659,0-19.364,5.147-24.75,9.282   c-4.524,3.475-7.794,5.984-15.019,5.984c-7.23,0-10.496-2.513-15.018-5.991c-5.373-4.133-12.059-9.276-24.675-9.276   c-12.573,0-19.242,5.14-24.6,9.269c-4.517,3.481-7.781,5.997-15.017,5.997c-7.23,0-10.496-2.513-15.018-5.991   c-4.118-3.166-9.018-6.919-16.757-8.504v-8.022c0.091-3.397,1.438-7.445,7.349-7.445c6.138,0,16.056-3.351,38.454-29.482   c8.236-9.608,15.418-19.097,19.005-23.951h53.016c3.587,4.855,10.768,14.342,19.004,23.951   c22.397,26.131,32.315,29.482,38.453,29.482c5.912,0,7.259,4.048,7.349,7.348v21.185H347.313z"/>
	<rect x="217.828" y="22.9" style="fill:#231F20;" width="76.337" height="15.838"/>
	<path style="fill:#231F20;" d="M332.617,228.998H179.38v46.371h153.237V228.998z M316.779,259.532H195.218v-14.695h121.562V259.532   z"/>
</g>
<g>
	<rect x="233.096" y="297.693" style="fill:#FFFFFF;" width="99.227" height="15.838"/>
	<rect x="317.066" y="328.228" style="fill:#FFFFFF;" width="15.266" height="15.838"/>
</g>
<g>
	<rect x="286.532" y="328.228" style="fill:#231F20;" width="15.266" height="15.838"/>
	<polygon style="fill:#231F20;" points="225.466,465.63 195.218,465.63 195.218,443.015 179.38,443.015 179.38,481.467    225.466,481.467  "/>
</g>
<rect x="240.729" y="465.634" style="fill:#FFFFFF;" width="15.266" height="15.838"/>
<g>
</g>
<g>
</g>
<g>
</g>
<g>
</g>
<g>
</g>
<g>
</g>
<g>
</g>
<g>
</g>
<g>
</g>
<g>
</g>
<g>
</g>
<g>
</g>
<g>
</g>
<g>
</g>
<g>
</g>
</svg>
