<svg id="Capa_1" enable-background="new 0 0 512 512" height="512" viewBox="0 0 512 512" width="512" xmlns="http://www.w3.org/2000/svg"><g id="XMLID_1340_"><path id="XMLID_1949_" d="m182 10h286l34 34-34 34 34 34-34 34 34 34-34 34 34 34-34 34 34 34-34 34 34 34-34 34h-114v-324z" fill="#f9f9f9"/><path id="XMLID_1940_" d="m354 94v324c0 46.392-77.007 84-172 84s-172-37.608-172-84v-324z" fill="#fff"/><ellipse id="XMLID_2183_" cx="182" cy="94" fill="#e1e3e9" rx="172" ry="84"/><ellipse id="XMLID_2122_" cx="182" cy="94" fill="#98a1b3" rx="63" ry="32"/><g id="XMLID_534_"><path id="XMLID_541_" d="m182 136c41.617 0 73-18.056 73-42s-31.383-42-73-42-73 18.056-73 42 31.383 42 73 42zm0-64c32.354 0 53 13.03 53 22s-20.646 22-53 22-53-13.03-53-22 20.646-22 53-22z"/><path id="XMLID_566_" d="m509.071 104.929-26.928-26.929 26.929-26.929c3.905-3.905 3.905-10.237 0-14.143l-34-34c-1.877-1.874-4.42-2.928-7.072-2.928h-286c-102.056 0-182 41.29-182 94v324c0 52.71 79.944 94 182 94 95.505 0 171.641-36.16 181.022-84h104.978c2.652 0 5.195-1.054 7.071-2.929l34-34c3.905-3.905 3.905-10.237 0-14.143l-26.928-26.928 26.929-26.929c3.905-3.905 3.905-10.237 0-14.143l-26.929-26.928 26.929-26.929c3.905-3.905 3.905-10.237 0-14.143l-26.929-26.928 26.929-26.929c3.905-3.905 3.905-10.237 0-14.143l-26.929-26.928 26.929-26.929c3.905-3.905 3.905-10.237-.001-14.142zm-444.305-61.34c31.147-15.211 72.782-23.589 117.234-23.589s86.087 8.377 117.234 23.589c28.45 13.894 44.766 32.268 44.766 50.411s-16.316 36.518-44.766 50.411c-31.147 15.212-72.782 23.589-117.234 23.589s-86.087-8.377-117.234-23.589c-28.45-13.893-44.766-32.268-44.766-50.411s16.316-36.517 44.766-50.411zm396.163 95.34c-3.905 3.905-3.905 10.237 0 14.143l26.928 26.928-26.929 26.929c-3.905 3.905-3.905 10.237 0 14.143l26.929 26.928-26.929 26.929c-3.905 3.905-3.905 10.237 0 14.143l26.929 26.928-26.929 26.929c-3.905 3.905-3.905 10.237 0 14.143l26.929 26.928-24 24h-99.857v-82.541c0-5.522-4.478-10-10-10s-10 4.478-10 10v92.541c0 18.144-16.316 36.518-44.766 50.411-31.147 15.212-72.782 23.589-117.234 23.589s-86.087-8.377-117.234-23.589c-28.45-13.893-44.766-32.267-44.766-50.411v-280.484c29.922 30.236 90.537 50.484 162 50.484s132.078-20.248 162-50.484v97.943c0 5.523 4.478 10 10 10s10-4.477 10-10v-141.459c0-30.358-26.522-56.925-68.509-74h168.366l24 24-26.929 26.929c-3.905 3.905-3.905 10.237 0 14.143l26.929 26.928z"/><path id="XMLID_568_" d="m354 270.46c-2.63 0-5.21 1.07-7.07 2.93s-2.93 4.44-2.93 7.07 1.069 5.21 2.93 7.07c1.86 1.859 4.44 2.93 7.07 2.93s5.21-1.07 7.069-2.93c1.86-1.86 2.931-4.44 2.931-7.07s-1.07-5.21-2.931-7.07c-1.859-1.86-4.439-2.93-7.069-2.93z"/></g></g></svg>