<?xml version="1.0" encoding="iso-8859-1"?>
<!-- Generator: Adobe Illustrator 19.0.0, SVG Export Plug-In . SVG Version: 6.00 Build 0)  -->
<svg xmlns="http://www.w3.org/2000/svg" xmlns:xlink="http://www.w3.org/1999/xlink" version="1.1" id="Layer_1" x="0px" y="0px" viewBox="0 0 512 512" style="enable-background:new 0 0 512 512;" xml:space="preserve" width="512" height="512">
<path style="fill:#36C63F;" d="M325.899,62.405c-3.743,9.053-7.66,18.28-5.571,23.329c4.265,10.271,40.13,14.798,40.13,26.636  s-35.864,16.365-40.13,26.636c-4.353,10.619,17.583,39.172,9.575,47.268c-8.095,8.008-36.647-13.928-47.268-9.575  c-10.271,4.265-14.798,40.13-26.636,40.13c-11.839,0-16.365-35.864-26.636-40.13c-10.62-4.353-39.172,17.583-47.268,9.575  c-8.008-8.096,13.928-36.647,9.575-47.268c-4.265-10.271-40.13-14.798-40.13-26.636s35.864-16.365,40.13-26.636  c2.089-5.049-1.828-14.276-5.571-23.329c-4.179-9.923-8.182-19.673-4.005-23.939c8.096-8.008,36.647,13.928,47.268,9.575  C239.635,43.777,244.161,7.912,256,7.912c11.838,0,16.365,35.864,26.636,40.13c10.62,4.353,39.172-17.583,47.268-9.575  C334.082,42.732,330.078,52.481,325.899,62.405z"/>
<path style="fill:#EF3E25;" d="M325.899,62.405c90.705,29.509,156.426,114.73,156.426,215.358  c0,125.001-101.324,226.325-226.325,226.325S29.675,402.763,29.675,277.762c0-100.628,65.721-185.849,156.426-215.358  c3.743,9.053,7.66,18.28,5.571,23.329c-4.265,10.271-40.13,14.798-40.13,26.636s35.864,16.365,40.13,26.636  c4.353,10.619-17.583,39.172-9.575,47.268c8.096,8.008,36.647-13.928,47.268-9.575c10.271,4.265,14.798,40.13,26.636,40.13  c11.838,0,16.365-35.864,26.636-40.13c10.62-4.353,39.172,17.583,47.268,9.575c8.008-8.096-13.928-36.647-9.575-47.268  c4.265-10.271,40.13-14.798,40.13-26.636s-35.864-16.365-40.13-26.636C318.239,80.684,322.156,71.457,325.899,62.405z"/>
<path style="fill:#231F20;" d="M444.49,138.711c-27.619-37.37-64.876-65.258-108.131-81.058c3.43-9.187,5.359-18.433-0.804-24.724  l-0.088-0.088c-8.058-7.975-20.814-2.645-33.146,2.51c-4.835,2.019-13.757,5.718-16.614,5.359  c-2.154-1.776-5.502-10.01-7.523-14.983C273.044,13.079,267.726,0,256,0s-17.043,13.079-22.185,25.728  c-2.022,4.973-5.37,13.208-7.524,14.983c-2.897,0.391-11.779-3.34-16.614-5.359c-12.332-5.154-25.087-10.483-33.146-2.51  l-0.089,0.089c-6.165,6.295-4.228,15.551-0.802,24.723C132.385,73.451,95.13,101.34,67.51,138.711  c-29.928,40.496-45.747,88.579-45.747,139.051c0,62.57,24.365,121.392,68.605,165.633C134.608,487.636,193.43,512,256,512  s121.392-24.365,165.633-68.605c44.241-44.241,68.605-103.063,68.605-165.633C490.238,227.29,474.418,179.206,444.49,138.711z   M193.673,60.014l-0.282-0.679c-1.591-3.779-4.658-11.064-5.122-14.703c3.671,0.46,11.058,3.546,15.305,5.32  c10.692,4.468,20.791,8.686,28.821,5.397c7.768-3.226,11.803-13.153,16.077-23.662c1.856-4.564,5.137-12.638,7.526-15.321  c2.389,2.683,5.671,10.756,7.526,15.319c4.273,10.511,8.308,20.437,16.11,23.677c7.995,3.277,18.093-0.943,28.787-5.412  c4.246-1.774,11.635-4.861,15.306-5.32c-0.464,3.639-3.532,10.923-5.123,14.702l-0.282,0.68c-4.423,10.691-8.6,20.789-5.305,28.755  c3.226,7.768,13.153,11.803,23.663,16.076c4.563,1.856,12.636,5.137,15.318,7.526c-2.683,2.39-10.756,5.671-15.318,7.526  c-10.511,4.273-20.437,8.308-23.676,16.11c-3.277,7.997,0.943,18.096,5.41,28.79c1.777,4.251,4.868,11.649,5.322,15.315  c-3.667-0.455-11.065-3.546-15.316-5.322c-10.693-4.466-20.791-8.685-28.821-5.396c-7.768,3.226-11.803,13.153-16.076,23.663  c-1.856,4.563-5.138,12.636-7.526,15.318c-2.39-2.683-5.671-10.756-7.526-15.319c-4.274-10.51-8.309-20.436-16.111-23.676  c-1.987-0.813-4.102-1.165-6.324-1.165c-6.724,0-14.428,3.218-22.464,6.575c-4.251,1.777-11.649,4.868-15.316,5.322  c0.455-3.666,3.546-11.064,5.322-15.315c4.467-10.693,8.687-20.793,5.396-28.822c-3.226-7.768-13.153-11.803-23.662-16.076  c-4.564-1.856-12.637-5.138-15.318-7.526c2.683-2.388,10.755-5.671,15.318-7.526c10.51-4.273,20.436-8.308,23.665-16.085  C202.274,80.803,198.096,70.705,193.673,60.014z M256,496.175c-120.433,0-218.413-97.98-218.413-218.413  c0-47.062,14.748-91.894,42.65-129.646c25.867-35,60.793-61.08,101.337-75.78c1.585,4.141,3.016,8.472,2.77,10.32  c-1.766,2.153-10.01,5.505-14.987,7.528c-12.647,5.142-25.727,10.459-25.727,22.185s13.08,17.043,25.727,22.185  c4.973,2.021,13.208,5.37,14.983,7.523c0.379,2.882-3.339,11.78-5.359,16.615c-5.154,12.333-10.482,25.085-2.449,33.206  c8.059,7.973,20.814,2.644,33.146-2.51c4.835-2.02,13.731-5.761,16.614-5.359c2.154,1.776,5.502,10.01,7.524,14.983  c5.142,12.648,10.459,25.728,22.185,25.728c11.726,0,17.043-13.079,22.185-25.728c2.021-4.973,5.369-13.208,7.523-14.983  c2.863-0.39,11.78,3.34,16.614,5.359c12.333,5.154,25.086,10.482,33.207,2.449c7.973-8.059,2.644-20.812-2.51-33.145  c-2.02-4.835-5.739-13.734-5.359-16.615c1.776-2.153,10.01-5.502,14.983-7.523c12.648-5.142,25.728-10.459,25.728-22.185  s-13.079-17.043-25.728-22.185c-4.977-2.023-13.221-5.375-14.987-7.528c-0.246-1.848,1.186-6.178,2.77-10.32  c40.545,14.7,75.471,40.778,101.338,75.78c27.901,37.753,42.65,82.583,42.65,129.646C474.413,398.195,376.433,496.175,256,496.175z"/>
<g>
	<polygon style="fill:#FFFFFF;" points="248.088,138.485 263.912,138.485 263.912,120.283 282.114,120.283 282.114,104.458    263.912,104.458 263.912,86.256 248.088,86.256 248.088,104.458 229.885,104.458 229.885,120.283 248.088,120.283  "/>
	<path style="fill:#FFFFFF;" d="M98.521,277.762H82.696c0,95.56,77.744,173.304,173.304,173.304v-15.825   C169.166,435.241,98.521,364.596,98.521,277.762z"/>
</g>
<g>
	<rect x="273.41" y="435.245" style="fill:#231F20;" width="17.409" height="15.825"/>
	<rect x="386.568" y="365.606" style="fill:#231F20;" width="17.409" height="15.825"/>
	<rect x="403.986" y="348.198" style="fill:#231F20;" width="17.41" height="15.825"/>
	<rect x="386.568" y="330.781" style="fill:#231F20;" width="17.409" height="15.825"/>
</g>
<g>
</g>
<g>
</g>
<g>
</g>
<g>
</g>
<g>
</g>
<g>
</g>
<g>
</g>
<g>
</g>
<g>
</g>
<g>
</g>
<g>
</g>
<g>
</g>
<g>
</g>
<g>
</g>
<g>
</g>
</svg>
