<?xml version="1.0" encoding="UTF-8" standalone="no"?>
<!DOCTYPE svg PUBLIC "-//W3C//DTD SVG 1.1//EN" "http://www.w3.org/Graphics/SVG/1.1/DTD/svg11.dtd">
<svg version="1.1" xmlns="http://www.w3.org/2000/svg" xmlns:xlink="http://www.w3.org/1999/xlink" preserveAspectRatio="xMidYMid meet" viewBox="0 0 40 40" width="40" height="40"><defs><path d="M27.71 0.9C30.3 0.9 32.4 3 32.4 5.58C32.4 8.27 32.4 11.65 32.4 14.34C32.4 16.93 30.3 19.02 27.71 19.02C26.78 19.02 28.65 19.02 27.71 19.02C25.13 19.02 23.03 16.93 23.03 14.34C23.03 11.65 23.03 8.27 23.03 5.58C23.03 3 25.13 0.9 27.71 0.9C28.65 0.9 26.78 0.9 27.71 0.9Z" id="a2n0gPWG55"></path><path d="M11.67 6.77C14.26 6.77 16.36 8.87 16.36 11.45C16.36 14.14 16.36 17.52 16.36 20.21C16.36 22.8 14.26 24.89 11.67 24.89C10.73 24.89 12.61 24.89 11.67 24.89C9.08 24.89 6.99 22.8 6.99 20.21C6.99 17.52 6.99 14.14 6.99 11.45C6.99 8.87 9.08 6.77 11.67 6.77C12.61 6.77 10.73 6.77 11.67 6.77Z" id="bjLzvNu8E"></path><path d="M25.58 5.96C32.54 5.96 38.18 11.61 38.18 18.57C38.18 22.14 38.18 20.25 38.18 23.82C38.18 30.78 32.54 36.42 25.58 36.42C20.9 36.42 19.48 36.42 14.81 36.42C7.85 36.42 2.2 30.78 2.2 23.82C2.2 20.25 2.2 22.14 2.2 18.57C2.2 11.61 7.85 5.96 14.81 5.96C19.48 5.96 20.9 5.96 25.58 5.96Z" id="h5lhSFwmdV"></path><path d="M34.52 23.97C34.62 26.15 34.58 27.51 34.4 28.05C33.99 29.29 33.34 30.17 32.47 30.67C31.93 30.99 31.29 31.16 30.57 31.19" id="ad3sNI0Kd"></path><path d="M31.21 32.58C31.21 36.18 28.29 39.1 24.7 39.1C21.1 39.1 18.18 36.18 18.18 32.58C18.18 28.99 21.1 26.07 24.7 26.07C28.29 26.07 31.21 28.99 31.21 32.58Z" id="f1krjciEls"></path></defs><g><g><g><use xlink:href="#a2n0gPWG55" opacity="1" fill="#000000" fill-opacity="1"></use><g><use xlink:href="#a2n0gPWG55" opacity="1" fill-opacity="0" stroke="#000000" stroke-width="1" stroke-opacity="1"></use></g></g><g><use xlink:href="#bjLzvNu8E" opacity="1" fill="#000000" fill-opacity="1"></use><g><use xlink:href="#bjLzvNu8E" opacity="1" fill-opacity="0" stroke="#000000" stroke-width="1" stroke-opacity="1"></use></g></g><g><use xlink:href="#h5lhSFwmdV" opacity="1" fill="#dbc706" fill-opacity="1"></use><g><use xlink:href="#h5lhSFwmdV" opacity="1" fill-opacity="0" stroke="#000000" stroke-width="1" stroke-opacity="1"></use></g></g><g><g><use xlink:href="#ad3sNI0Kd" opacity="1" fill-opacity="0" stroke="#ffffff" stroke-width="3" stroke-opacity="0.3"></use></g></g><g><use xlink:href="#f1krjciEls" opacity="1" fill="#ffe700" fill-opacity="1"></use><g><use xlink:href="#f1krjciEls" opacity="1" fill-opacity="0" stroke="#000000" stroke-width="1" stroke-opacity="1"></use></g></g></g></g></svg>