<?xml version="1.0" encoding="UTF-8" standalone="no"?>
<!DOCTYPE svg PUBLIC "-//W3C//DTD SVG 1.1//EN" "http://www.w3.org/Graphics/SVG/1.1/DTD/svg11.dtd">
<svg version="1.1" xmlns="http://www.w3.org/2000/svg" xmlns:xlink="http://www.w3.org/1999/xlink" preserveAspectRatio="xMidYMid meet" viewBox="0 0 40 40" width="40" height="40"><defs><path d="M27.9 1.72C30.61 1.72 32.8 3.91 32.8 6.61C32.8 9.42 32.8 12.96 32.8 15.76C32.8 18.47 30.61 20.66 27.9 20.66C26.93 20.66 28.88 20.66 27.9 20.66C25.2 20.66 23.01 18.47 23.01 15.76C23.01 12.96 23.01 9.42 23.01 6.61C23.01 3.91 25.2 1.72 27.9 1.72C28.88 1.72 26.93 1.72 27.9 1.72Z" id="c7KK1RHgS"></path><path d="M12.1 7.72C14.8 7.72 16.99 9.91 16.99 12.61C16.99 15.42 16.99 18.96 16.99 21.76C16.99 24.47 14.8 26.66 12.1 26.66C11.12 26.66 13.07 26.66 12.1 26.66C9.39 26.66 7.2 24.47 7.2 21.76C7.2 18.96 7.2 15.42 7.2 12.61C7.2 9.91 9.39 7.72 12.1 7.72C13.07 7.72 11.12 7.72 12.1 7.72Z" id="butLIDyBH"></path><path d="M25.63 7.01C32.9 7.01 38.8 12.91 38.8 20.18C38.8 23.91 38.8 21.94 38.8 25.67C38.8 32.94 32.9 38.84 25.63 38.84C20.74 38.84 19.26 38.84 14.37 38.84C7.1 38.84 1.2 32.94 1.2 25.67C1.2 21.94 1.2 23.91 1.2 20.18C1.2 12.91 7.1 7.01 14.37 7.01C19.26 7.01 20.74 7.01 25.63 7.01Z" id="c7btzci1G"></path><path d="M35.46 20C35.7 24.62 35.61 27.5 35.17 28.64C34.15 31.27 32.57 33.12 30.45 34.19C29.12 34.86 27.57 35.23 25.8 35.29" id="c2gAn7dS5C"></path></defs><g><g><g><use xlink:href="#c7KK1RHgS" opacity="1" fill="#000000" fill-opacity="1"></use><g><use xlink:href="#c7KK1RHgS" opacity="1" fill-opacity="0" stroke="#000000" stroke-width="1" stroke-opacity="1"></use></g></g><g><use xlink:href="#butLIDyBH" opacity="1" fill="#000000" fill-opacity="1"></use><g><use xlink:href="#butLIDyBH" opacity="1" fill-opacity="0" stroke="#000000" stroke-width="1" stroke-opacity="1"></use></g></g><g><use xlink:href="#c7btzci1G" opacity="1" fill="#474747" fill-opacity="1"></use><g><use xlink:href="#c7btzci1G" opacity="1" fill-opacity="0" stroke="#000000" stroke-width="1" stroke-opacity="1"></use></g></g><g><g><use xlink:href="#c2gAn7dS5C" opacity="1" fill-opacity="0" stroke="#ffffff" stroke-width="3" stroke-opacity="0.3"></use></g></g></g></g></svg>