<?xml version="1.0" encoding="UTF-8" standalone="no"?>
<!DOCTYPE svg PUBLIC "-//W3C//DTD SVG 1.1//EN" "http://www.w3.org/Graphics/SVG/1.1/DTD/svg11.dtd">
<svg version="1.1" xmlns="http://www.w3.org/2000/svg" xmlns:xlink="http://www.w3.org/1999/xlink" preserveAspectRatio="xMidYMid meet" viewBox="0 0 40 40" width="40" height="40"><defs><path d="M28.71 6.9C31.3 6.9 33.4 9 33.4 11.58C33.4 14.27 33.4 17.65 33.4 20.34C33.4 22.93 31.3 25.02 28.71 25.02C27.78 25.02 29.65 25.02 28.71 25.02C26.13 25.02 24.03 22.93 24.03 20.34C24.03 17.65 24.03 14.27 24.03 11.58C24.03 9 26.13 6.9 28.71 6.9C29.65 6.9 27.78 6.9 28.71 6.9Z" id="i10P5kwati"></path><path d="M12.67 0.77C15.26 0.77 17.36 2.87 17.36 5.45C17.36 8.14 17.36 11.52 17.36 14.21C17.36 16.8 15.26 18.89 12.67 18.89C11.73 18.89 13.61 18.89 12.67 18.89C10.08 18.89 7.99 16.8 7.99 14.21C7.99 11.52 7.99 8.14 7.99 5.45C7.99 2.87 10.08 0.77 12.67 0.77C13.61 0.77 11.73 0.77 12.67 0.77Z" id="aWbXYQud8"></path><path d="M25.58 5.96C32.54 5.96 38.18 11.61 38.18 18.57C38.18 22.14 38.18 20.25 38.18 23.82C38.18 30.78 32.54 36.42 25.58 36.42C20.9 36.42 19.48 36.42 14.81 36.42C7.85 36.42 2.2 30.78 2.2 23.82C2.2 20.25 2.2 22.14 2.2 18.57C2.2 11.61 7.85 5.96 14.81 5.96C19.48 5.96 20.9 5.96 25.58 5.96Z" id="h5lhSFwmdV"></path><path d="M34.52 23.97C34.62 26.15 34.58 27.51 34.4 28.05C33.99 29.29 33.34 30.17 32.47 30.67C31.93 30.99 31.29 31.16 30.57 31.19" id="ad3sNI0Kd"></path><path d="M31.21 32.58C31.21 36.18 28.29 39.1 24.7 39.1C21.1 39.1 18.18 36.18 18.18 32.58C18.18 28.99 21.1 26.07 24.7 26.07C28.29 26.07 31.21 28.99 31.21 32.58Z" id="f1krjciEls"></path></defs><g><g><g><use xlink:href="#i10P5kwati" opacity="1" fill="#000000" fill-opacity="1"></use><g><use xlink:href="#i10P5kwati" opacity="1" fill-opacity="0" stroke="#000000" stroke-width="1" stroke-opacity="1"></use></g></g><g><use xlink:href="#aWbXYQud8" opacity="1" fill="#000000" fill-opacity="1"></use><g><use xlink:href="#aWbXYQud8" opacity="1" fill-opacity="0" stroke="#000000" stroke-width="1" stroke-opacity="1"></use></g></g><g><use xlink:href="#h5lhSFwmdV" opacity="1" fill="#dbc706" fill-opacity="1"></use><g><use xlink:href="#h5lhSFwmdV" opacity="1" fill-opacity="0" stroke="#000000" stroke-width="1" stroke-opacity="1"></use></g></g><g><g><use xlink:href="#ad3sNI0Kd" opacity="1" fill-opacity="0" stroke="#ffffff" stroke-width="3" stroke-opacity="0.3"></use></g></g><g><use xlink:href="#f1krjciEls" opacity="1" fill="#ffe700" fill-opacity="1"></use><g><use xlink:href="#f1krjciEls" opacity="1" fill-opacity="0" stroke="#000000" stroke-width="1" stroke-opacity="1"></use></g></g></g></g></svg>