<?xml version="1.0" encoding="UTF-8" standalone="no"?>
<!DOCTYPE svg PUBLIC "-//W3C//DTD SVG 1.1//EN" "http://www.w3.org/Graphics/SVG/1.1/DTD/svg11.dtd">
<svg version="1.1" xmlns="http://www.w3.org/2000/svg" xmlns:xlink="http://www.w3.org/1999/xlink" preserveAspectRatio="xMidYMid meet" viewBox="0 0 300 100" width="300" height="100"><defs><path d="M0 0L300 0L300 50L0 50L0 0Z" id="aCdviFA7A"></path><path d="M269.7 3.84L296.22 26.49L296.22 3.84L269.7 3.84Z" id="crmJmQlj5"></path><path d="M185.65 45.42L139.44 3.84L173.44 3.84L221.29 45.42L185.65 45.42Z" id="a1lDizyHCy"></path><path d="M55.23 45.42L9.03 3.84L43.02 3.84L90.88 45.42L55.23 45.42Z" id="f27DYrGz4A"></path><path d="M0 50L300 50L300 100L0 100L0 50Z" id="d5KVHaPzzZ"></path><path d="M265.94 53.84L296.22 79.71L296.22 53.84L265.94 53.84Z" id="doOfqSQo"></path><path d="M180.65 95.42L134.44 53.84L168.44 53.84L216.29 95.42L180.65 95.42Z" id="e6UsExeQbK"></path><path d="M47.23 95.42L1.03 53.84L35.02 53.84L82.88 95.42L47.23 95.42Z" id="hbp4hcazi"></path></defs><g><g><g><use xlink:href="#aCdviFA7A" opacity="1" fill="#c2e4e4" fill-opacity="1"></use><g><use xlink:href="#aCdviFA7A" opacity="1" fill-opacity="0" stroke="#000000" stroke-width="1" stroke-opacity="1"></use></g></g><g><use xlink:href="#crmJmQlj5" opacity="1" fill="#ffffff" fill-opacity="0.39"></use><g><use xlink:href="#crmJmQlj5" opacity="1" fill-opacity="0" stroke="#000000" stroke-width="0" stroke-opacity="1"></use></g></g><g><use xlink:href="#a1lDizyHCy" opacity="1" fill="#ffffff" fill-opacity="0.39"></use><g><use xlink:href="#a1lDizyHCy" opacity="1" fill-opacity="0" stroke="#000000" stroke-width="0" stroke-opacity="1"></use></g></g><g><use xlink:href="#f27DYrGz4A" opacity="1" fill="#ffffff" fill-opacity="0.39"></use><g><use xlink:href="#f27DYrGz4A" opacity="1" fill-opacity="0" stroke="#000000" stroke-width="0" stroke-opacity="1"></use></g></g><g><use xlink:href="#d5KVHaPzzZ" opacity="1" fill="#c2e4e4" fill-opacity="1"></use><g><use xlink:href="#d5KVHaPzzZ" opacity="1" fill-opacity="0" stroke="#000000" stroke-width="1" stroke-opacity="1"></use></g></g><g><use xlink:href="#doOfqSQo" opacity="1" fill="#ffffff" fill-opacity="0.39"></use><g><use xlink:href="#doOfqSQo" opacity="1" fill-opacity="0" stroke="#000000" stroke-width="0" stroke-opacity="1"></use></g></g><g><use xlink:href="#e6UsExeQbK" opacity="1" fill="#ffffff" fill-opacity="0.39"></use><g><use xlink:href="#e6UsExeQbK" opacity="1" fill-opacity="0" stroke="#000000" stroke-width="0" stroke-opacity="1"></use></g></g><g><use xlink:href="#hbp4hcazi" opacity="1" fill="#ffffff" fill-opacity="0.39"></use><g><use xlink:href="#hbp4hcazi" opacity="1" fill-opacity="0" stroke="#000000" stroke-width="0" stroke-opacity="1"></use></g></g></g></g></svg>