<?xml version="1.0" encoding="UTF-8" standalone="no"?>
<!DOCTYPE svg PUBLIC "-//W3C//DTD SVG 1.1//EN" "http://www.w3.org/Graphics/SVG/1.1/DTD/svg11.dtd">
<svg version="1.1" xmlns="http://www.w3.org/2000/svg" xmlns:xlink="http://www.w3.org/1999/xlink" preserveAspectRatio="xMidYMid meet" viewBox="0 0 40 40" width="40" height="40"><defs><path d="M27.9 1.72C30.61 1.72 32.8 3.91 32.8 6.61C32.8 9.42 32.8 12.96 32.8 15.76C32.8 18.47 30.61 20.66 27.9 20.66C26.93 20.66 28.88 20.66 27.9 20.66C25.2 20.66 23.01 18.47 23.01 15.76C23.01 12.96 23.01 9.42 23.01 6.61C23.01 3.91 25.2 1.72 27.9 1.72C28.88 1.72 26.93 1.72 27.9 1.72Z" id="e3jUcUzbVY"></path><path d="M11.1 7.72C13.8 7.72 15.99 9.91 15.99 12.61C15.99 15.42 15.99 18.96 15.99 21.76C15.99 24.47 13.8 26.66 11.1 26.66C10.12 26.66 12.07 26.66 11.1 26.66C8.39 26.66 6.2 24.47 6.2 21.76C6.2 18.96 6.2 15.42 6.2 12.61C6.2 9.91 8.39 7.72 11.1 7.72C12.07 7.72 10.12 7.72 11.1 7.72Z" id="a16qPjcHlr"></path><path d="M25.63 7.01C32.9 7.01 38.8 12.91 38.8 20.18C38.8 23.91 38.8 21.94 38.8 25.67C38.8 32.94 32.9 38.84 25.63 38.84C20.74 38.84 19.26 38.84 14.37 38.84C7.1 38.84 1.2 32.94 1.2 25.67C1.2 21.94 1.2 23.91 1.2 20.18C1.2 12.91 7.1 7.01 14.37 7.01C19.26 7.01 20.74 7.01 25.63 7.01Z" id="d6jzf7qz5"></path><path d="M35.46 20.73C35.7 25.13 35.61 27.87 35.17 28.96C34.15 31.46 32.57 33.22 30.45 34.24C29.12 34.88 27.57 35.23 25.8 35.29" id="a2a9Iwx1Co"></path></defs><g><g><g><use xlink:href="#e3jUcUzbVY" opacity="1" fill="#000000" fill-opacity="1"></use><g><use xlink:href="#e3jUcUzbVY" opacity="1" fill-opacity="0" stroke="#000000" stroke-width="1" stroke-opacity="1"></use></g></g><g><use xlink:href="#a16qPjcHlr" opacity="1" fill="#000000" fill-opacity="1"></use><g><use xlink:href="#a16qPjcHlr" opacity="1" fill-opacity="0" stroke="#000000" stroke-width="1" stroke-opacity="1"></use></g></g><g><use xlink:href="#d6jzf7qz5" opacity="1" fill="#804e1d" fill-opacity="1"></use><g><use xlink:href="#d6jzf7qz5" opacity="1" fill-opacity="0" stroke="#000000" stroke-width="1" stroke-opacity="1"></use></g></g><g><g><use xlink:href="#a2a9Iwx1Co" opacity="1" fill-opacity="0" stroke="#ffffff" stroke-width="3" stroke-opacity="0.3"></use></g></g></g></g></svg>