<?xml version="1.0" encoding="UTF-8" standalone="no"?>
<!DOCTYPE svg PUBLIC "-//W3C//DTD SVG 1.1//EN" "http://www.w3.org/Graphics/SVG/1.1/DTD/svg11.dtd">
<svg version="1.1" xmlns="http://www.w3.org/2000/svg" xmlns:xlink="http://www.w3.org/1999/xlink" preserveAspectRatio="xMidYMid meet" viewBox="0 0 40 40" width="40" height="40"><defs><path d="M28.9 7.72C31.61 7.72 33.8 9.91 33.8 12.61C33.8 15.42 33.8 18.96 33.8 21.76C33.8 24.47 31.61 26.66 28.9 26.66C27.93 26.66 29.88 26.66 28.9 26.66C26.2 26.66 24.01 24.47 24.01 21.76C24.01 18.96 24.01 15.42 24.01 12.61C24.01 9.91 26.2 7.72 28.9 7.72C29.88 7.72 27.93 7.72 28.9 7.72Z" id="cIsz7stT"></path><path d="M12.1 1.72C14.8 1.72 16.99 3.91 16.99 6.61C16.99 9.42 16.99 12.96 16.99 15.76C16.99 18.47 14.8 20.66 12.1 20.66C11.12 20.66 13.07 20.66 12.1 20.66C9.39 20.66 7.2 18.47 7.2 15.76C7.2 12.96 7.2 9.42 7.2 6.61C7.2 3.91 9.39 1.72 12.1 1.72C13.07 1.72 11.12 1.72 12.1 1.72Z" id="b2uMjV39vW"></path><path d="M25.63 7.01C32.9 7.01 38.8 12.91 38.8 20.18C38.8 23.91 38.8 21.94 38.8 25.67C38.8 32.94 32.9 38.84 25.63 38.84C20.74 38.84 19.26 38.84 14.37 38.84C7.1 38.84 1.2 32.94 1.2 25.67C1.2 21.94 1.2 23.91 1.2 20.18C1.2 12.91 7.1 7.01 14.37 7.01C19.26 7.01 20.74 7.01 25.63 7.01Z" id="d6jzf7qz5"></path><path d="M35.46 20.73C35.7 25.13 35.61 27.87 35.17 28.96C34.15 31.46 32.57 33.22 30.45 34.24C29.12 34.88 27.57 35.23 25.8 35.29" id="a2a9Iwx1Co"></path></defs><g><g><g><use xlink:href="#cIsz7stT" opacity="1" fill="#000000" fill-opacity="1"></use><g><use xlink:href="#cIsz7stT" opacity="1" fill-opacity="0" stroke="#000000" stroke-width="1" stroke-opacity="1"></use></g></g><g><use xlink:href="#b2uMjV39vW" opacity="1" fill="#000000" fill-opacity="1"></use><g><use xlink:href="#b2uMjV39vW" opacity="1" fill-opacity="0" stroke="#000000" stroke-width="1" stroke-opacity="1"></use></g></g><g><use xlink:href="#d6jzf7qz5" opacity="1" fill="#804e1d" fill-opacity="1"></use><g><use xlink:href="#d6jzf7qz5" opacity="1" fill-opacity="0" stroke="#000000" stroke-width="1" stroke-opacity="1"></use></g></g><g><g><use xlink:href="#a2a9Iwx1Co" opacity="1" fill-opacity="0" stroke="#ffffff" stroke-width="3" stroke-opacity="0.3"></use></g></g></g></g></svg>