<?xml version="1.0" encoding="UTF-8" standalone="no"?>
<!DOCTYPE svg PUBLIC "-//W3C//DTD SVG 1.1//EN" "http://www.w3.org/Graphics/SVG/1.1/DTD/svg11.dtd">
<svg version="1.1" xmlns="http://www.w3.org/2000/svg" xmlns:xlink="http://www.w3.org/1999/xlink" preserveAspectRatio="xMidYMid meet" viewBox="0 0 40 40" width="40" height="40"><defs><path d="M2.98 11.1C2.98 8.39 5.18 6.2 7.88 6.2C10.69 6.2 14.22 6.2 17.03 6.2C19.73 6.2 21.92 8.39 21.92 11.1C21.92 12.07 21.92 10.12 21.92 11.1C21.92 13.8 19.73 15.99 17.03 15.99C14.22 15.99 10.69 15.99 7.88 15.99C5.18 15.99 2.98 13.8 2.98 11.1C2.98 10.12 2.98 12.07 2.98 11.1Z" id="cw7UWQi8V"></path><path d="M2.98 28.9C2.98 26.2 5.18 24.01 7.88 24.01C10.69 24.01 14.22 24.01 17.03 24.01C19.73 24.01 21.92 26.2 21.92 28.9C21.92 29.88 21.92 27.93 21.92 28.9C21.92 31.61 19.73 33.8 17.03 33.8C14.22 33.8 10.69 33.8 7.88 33.8C5.18 33.8 2.98 31.61 2.98 28.9C2.98 27.93 2.98 29.88 2.98 28.9Z" id="bbUVjBqak"></path><path d="M5.19 14.37C5.19 7.1 11.08 1.2 18.36 1.2C22.09 1.2 20.11 1.2 23.84 1.2C31.12 1.2 37.02 7.1 37.02 14.37C37.02 19.26 37.02 20.74 37.02 25.63C37.02 32.9 31.12 38.8 23.84 38.8C20.11 38.8 22.09 38.8 18.36 38.8C11.08 38.8 5.19 32.9 5.19 25.63C5.19 20.74 5.19 19.26 5.19 14.37Z" id="b3VeOjgMJ"></path><path d="M5.19 15.58C5.19 10.15 9.59 5.76 15.01 5.76C18.57 5.76 19.43 5.76 23 5.76C28.42 5.76 32.82 10.15 32.82 15.58C32.82 19.22 32.82 20.33 32.82 23.97C32.82 29.4 28.42 33.8 23 33.8C19.43 33.8 18.57 33.8 15.01 33.8C9.59 33.8 5.19 29.4 5.19 23.97C5.19 20.33 5.19 19.22 5.19 15.58Z" id="f4J9v3EI9O"></path><path d="M21.52 9.48C24.2 9.5 25.86 9.7 26.49 10.07C27.95 10.92 28.94 12.13 29.44 13.71C29.76 14.69 29.88 15.83 29.82 17.1" id="e6NPWJD5Ih"></path></defs><g><g><g><use xlink:href="#cw7UWQi8V" opacity="1" fill="#000000" fill-opacity="1"></use><g><use xlink:href="#cw7UWQi8V" opacity="1" fill-opacity="0" stroke="#000000" stroke-width="1" stroke-opacity="1"></use></g></g><g><use xlink:href="#bbUVjBqak" opacity="1" fill="#000000" fill-opacity="1"></use><g><use xlink:href="#bbUVjBqak" opacity="1" fill-opacity="0" stroke="#000000" stroke-width="1" stroke-opacity="1"></use></g></g><g><use xlink:href="#b3VeOjgMJ" opacity="1" fill="#b9b9b9" fill-opacity="1"></use><g><use xlink:href="#b3VeOjgMJ" opacity="1" fill-opacity="0" stroke="#000000" stroke-width="1" stroke-opacity="1"></use></g></g><g><use xlink:href="#f4J9v3EI9O" opacity="1" fill="#dba578" fill-opacity="1"></use><g><use xlink:href="#f4J9v3EI9O" opacity="1" fill-opacity="0" stroke="#000000" stroke-width="0.5" stroke-opacity="1"></use></g></g><g><g><use xlink:href="#e6NPWJD5Ih" opacity="1" fill-opacity="0" stroke="#ffffff" stroke-width="3" stroke-opacity="0.27"></use></g></g></g></g></svg>